<?xml version="1.0" standalone="no"?>
<!DOCTYPE svg PUBLIC "-//W3C//DTD SVG 20010904//EN"
 "http://www.w3.org/TR/2001/REC-SVG-20010904/DTD/svg10.dtd">
<svg version="1.0" xmlns="http://www.w3.org/2000/svg"
 width="897.000000pt" height="897.000000pt" viewBox="0 0 897.000000 897.000000"
 preserveAspectRatio="xMidYMid meet">
<metadata>
Created by potrace 1.11, written by Peter Selinger 2001-2013
</metadata>
<g transform="translate(0.000000,897.000000) scale(0.100000,-0.100000)"
fill="#000000" stroke="none">
<path d="M1071 8956 c-20 -24 -9 -79 18 -93 56 -27 109 47 65 91 -19 20 -68
21 -83 2z m77 -44 c-4 -37 -51 -44 -69 -11 -10 20 -9 25 11 41 30 24 63 8 58
-30z"/>
<path d="M4525 8788 c-22 -5 -137 -11 -255 -11 l-215 -2 -55 -29 c-77 -40
-135 -90 -187 -160 -55 -74 -116 -193 -109 -211 3 -8 0 -15 -5 -17 -6 -2 -11
-10 -13 -18 -1 -8 -7 -31 -14 -50 -11 -34 -22 -105 -25 -162 -1 -14 -5 -30 -9
-34 -5 -4 -8 -19 -7 -33 l1 -26 7 25 c5 17 9 21 15 12 11 -18 -3 -54 -20 -48
-8 3 -14 -1 -14 -9 0 -8 7 -15 15 -15 8 0 15 -7 15 -15 0 -18 -20 -20 -21 -2
-1 20 -28 -46 -29 -72 0 -17 4 -22 15 -17 8 3 15 2 15 -3 0 -5 -8 -11 -18 -13
-39 -11 -76 -276 -66 -473 3 -66 8 -124 12 -129 3 -6 7 -22 8 -36 5 -45 16
-95 28 -122 4 -9 5 -22 1 -28 -3 -5 -1 -10 5 -10 7 0 9 -8 5 -20 -4 -11 -2
-20 4 -20 6 0 11 -7 11 -15 0 -8 7 -15 16 -15 13 0 14 -3 4 -15 -7 -8 -17 -12
-24 -8 -7 4 -6 1 1 -9 7 -8 9 -19 5 -24 -4 -4 2 -2 12 6 16 12 18 12 11 1 -5
-9 -2 -19 10 -28 18 -12 18 -13 -3 -13 -16 0 -20 -4 -15 -17 8 -21 33 -48 33
-37 0 5 6 2 12 -4 10 -10 10 -15 -2 -22 -13 -8 -12 -10 3 -10 9 0 17 -4 17
-10 0 -5 -4 -10 -10 -10 -5 0 -10 -4 -10 -10 0 -5 8 -10 18 -10 13 0 14 -2 4
-9 -11 -7 -11 -11 0 -22 15 -15 42 -76 37 -81 -2 -2 4 -14 14 -28 9 -13 17
-32 17 -42 0 -10 3 -18 8 -18 4 0 16 -17 27 -37 27 -53 103 -169 118 -181 8
-7 18 -7 27 -2 12 8 12 11 -1 27 -8 10 -27 45 -43 78 -16 33 -37 77 -47 98
-10 20 -13 37 -8 37 6 0 16 -15 24 -32 19 -42 43 -73 51 -65 4 3 -1 13 -10 22
-9 9 -16 21 -16 28 0 10 44 -31 46 -43 2 -15 21 -49 46 -84 27 -38 174 -196
182 -196 3 0 5 88 6 195 l0 196 -44 62 c-53 76 -106 180 -153 301 l-34 91 1
359 c0 197 3 363 6 368 4 5 14 -3 23 -19 21 -34 90 -108 95 -102 3 2 1 33 -3
69 -5 36 -7 66 -6 68 1 2 14 -16 28 -40 37 -62 113 -132 182 -166 65 -33 120
-50 113 -36 -42 89 -70 184 -55 184 3 0 15 -20 27 -45 29 -59 113 -151 161
-176 53 -27 59 -25 48 13 -10 35 -13 138 -4 138 3 0 16 -10 28 -21 76 -74 210
-133 325 -145 l62 -7 0 -253 c0 -296 -9 -354 -75 -490 -37 -76 -57 -103 -120
-162 -105 -98 -152 -115 -305 -110 -129 4 -174 20 -242 86 -21 20 -41 32 -45
28 -10 -10 58 -69 112 -99 36 -20 54 -22 190 -22 169 0 189 6 269 76 l44 39 4
-208 c4 -230 11 -259 78 -336 39 -44 45 -48 274 -148 161 -70 186 -78 242 -78
108 0 253 -43 349 -103 100 -62 220 -190 270 -288 28 -54 82 -219 99 -304 9
-44 25 -107 36 -140 10 -33 32 -114 49 -180 17 -66 39 -156 50 -200 31 -123
61 -252 78 -335 8 -41 22 -106 29 -145 15 -74 32 -110 41 -87 7 18 24 15 21
-4 -3 -19 51 -42 110 -46 20 -2 39 -6 42 -10 10 -13 102 -21 245 -22 113 0
145 3 165 16 14 9 36 19 50 22 l25 7 -25 -15 c-30 -19 -17 -20 49 -4 28 6 48
16 44 21 -4 6 2 8 15 5 12 -4 26 0 33 8 7 8 20 12 30 9 15 -5 19 -1 20 17 1
17 3 18 6 6 5 -22 12 -22 39 -3 12 8 24 11 28 8 3 -3 6 -1 6 5 0 7 9 12 19 12
11 0 26 6 33 13 7 7 30 21 51 30 20 10 37 22 37 27 0 5 11 12 24 16 14 3 27
12 30 21 3 8 11 11 17 7 8 -4 9 -3 5 4 -4 6 4 16 16 23 22 12 22 11 8 -7 -14
-19 -14 -19 7 0 13 10 20 23 17 28 -3 5 1 8 9 6 9 -2 15 0 14 3 -3 11 35 49
43 44 4 -2 16 6 28 18 21 22 22 25 22 51 0 8 11 17 25 20 16 4 25 13 25 26 0
11 6 20 13 20 15 0 67 99 67 127 0 11 7 28 15 39 13 17 14 17 15 2 0 -10 4
-18 8 -18 14 0 60 99 55 119 -3 13 2 21 17 26 12 4 19 12 16 20 -3 8 0 16 7
19 9 3 9 5 -1 5 -10 1 -9 8 1 34 8 17 12 37 10 43 -2 6 5 14 17 17 14 4 20 13
20 35 0 17 5 34 10 37 6 3 10 20 10 36 0 18 -4 28 -10 24 -6 -4 -8 -10 -6 -14
3 -4 1 -13 -5 -21 -7 -12 -9 -11 -9 5 0 42 13 94 22 89 5 -3 6 -14 3 -25 -4
-10 -3 -19 2 -19 10 0 40 134 47 204 3 37 1 45 -6 32 -6 -10 -11 -35 -12 -56
0 -21 -4 -36 -8 -33 -5 2 -8 -1 -8 -6 0 -6 -5 -11 -11 -11 -5 0 -7 5 -3 12 4
6 -2 18 -12 26 -12 9 -13 13 -4 10 16 -5 43 57 35 80 -2 7 0 24 5 38 6 14 13
72 15 129 5 85 3 106 -10 119 -22 22 -48 9 -41 -20 4 -13 2 -24 -3 -24 -18 0
1 -38 21 -44 21 -5 21 -6 3 -32 -13 -20 -15 -29 -6 -32 8 -3 5 -10 -8 -21 -11
-9 -19 -24 -19 -31 2 -35 -3 -50 -17 -50 -8 0 -15 -4 -15 -9 0 -5 8 -7 18 -4
15 4 18 -2 17 -31 -1 -19 -8 -45 -17 -58 -10 -15 -12 -34 -8 -55 4 -18 4 -30
-1 -28 -10 7 -23 -60 -14 -75 4 -6 1 -17 -5 -25 -17 -20 -5 -19 14 1 14 13 16
14 16 0 0 -8 -4 -18 -10 -21 -5 -3 -10 -15 -10 -27 0 -15 -4 -18 -16 -14 -15
6 -15 4 -3 -11 12 -15 12 -16 -3 -10 -12 4 -18 1 -18 -9 0 -8 4 -12 10 -9 6 4
7 -6 4 -25 -5 -20 -3 -30 6 -30 6 0 10 -6 8 -12 -3 -7 -9 -13 -15 -13 -5 0
-17 -8 -27 -17 -16 -17 -16 -18 0 -18 11 0 14 -4 7 -12 -12 -17 -29 -73 -37
-120 -4 -21 -12 -40 -18 -44 -7 -5 -9 4 -4 29 6 31 4 36 -9 31 -8 -3 -12 -10
-9 -15 3 -5 0 -9 -6 -9 -6 0 -8 -5 -5 -10 3 -6 -1 -13 -9 -16 -9 -3 -13 -10
-10 -16 3 -5 -3 -17 -13 -26 -10 -9 -44 -51 -76 -94 -63 -85 -205 -221 -224
-214 -7 3 -10 -1 -7 -8 9 -23 -18 -31 -32 -11 -18 25 -29 13 -14 -15 9 -16 9
-25 1 -33 -8 -8 -11 -5 -11 12 0 20 -2 21 -15 11 -8 -7 -15 -9 -15 -5 0 4 -12
-1 -27 -11 -61 -39 -146 -84 -161 -84 -22 0 -7 12 58 46 30 16 63 37 74 47 11
9 28 17 38 17 12 0 16 4 12 12 -5 7 -2 9 9 5 11 -4 14 -2 10 9 -3 7 -1 14 4
14 5 0 19 9 31 21 12 11 27 17 34 13 6 -4 8 -3 5 3 -8 12 17 36 26 26 4 -3 16
5 27 18 15 19 21 21 29 10 10 -15 26 2 17 18 -3 5 13 27 37 48 39 38 48 49 80
105 6 13 20 29 30 37 14 10 16 16 7 25 -8 8 -15 6 -26 -8 -7 -11 -17 -16 -21
-13 -3 4 4 21 16 38 32 43 15 51 -20 9 -16 -19 -29 -31 -29 -27 0 11 31 58 52
79 10 10 32 46 49 80 17 35 37 66 43 70 7 5 5 8 -5 8 -22 0 -33 29 -18 46 15
18 29 9 29 -18 0 -29 6 -20 13 19 5 26 3 31 -8 26 -17 -6 -21 12 -5 22 6 3 10
17 10 30 0 27 13 38 49 40 13 0 27 7 29 13 4 14 -19 12 -31 -3 -13 -17 4 47
26 95 15 34 21 74 25 167 2 67 2 129 -2 138 -5 14 -8 14 -31 -1 -23 -15 -25
-15 -25 0 0 8 11 18 25 22 15 4 25 13 25 24 0 19 -25 50 -39 50 -5 0 -6 12 -3
27 5 25 6 25 13 8 7 -19 8 -19 8 1 1 25 -28 42 -30 19 -1 -8 -2 -21 -3 -27 -1
-14 -26 -18 -26 -5 0 4 0 21 0 38 0 29 2 31 30 27 29 -4 40 5 20 17 -17 10
-11 25 10 25 16 0 19 -6 16 -31 -2 -17 3 -56 11 -87 9 -32 16 -62 17 -69 5
-30 18 -25 14 5 -3 25 -1 32 9 28 8 -3 13 2 13 15 0 11 5 29 10 40 13 24 -4
26 -26 4 -25 -24 -33 -18 -30 23 2 20 4 57 5 81 2 61 16 42 16 -21 0 -35 4
-53 14 -56 10 -3 12 1 9 16 -4 12 0 26 8 33 11 9 14 7 14 -14 0 -14 7 -28 16
-31 23 -9 34 -7 34 4 0 6 -6 10 -14 10 -8 0 -18 5 -22 11 -4 8 0 9 15 4 16 -5
21 -2 21 12 -1 24 -24 110 -32 118 -9 10 -30 -33 -28 -58 4 -39 -2 -43 -9 -7
-4 26 -12 36 -28 38 -22 3 -28 -6 -24 -35 3 -21 -30 -14 -36 7 -3 11 -9 17
-14 14 -5 -3 -9 11 -9 30 0 22 5 36 13 36 6 0 4 5 -5 11 -21 12 -25 54 -5 46
8 -3 14 1 14 9 0 8 -9 14 -21 14 -15 0 -17 3 -8 12 14 14 16 52 2 43 -6 -3 -7
1 -4 9 4 9 1 16 -6 16 -7 0 -10 8 -7 20 3 11 1 23 -5 26 -6 4 -8 -13 -5 -49 3
-40 1 -57 -9 -61 -16 -6 -27 25 -19 56 5 19 2 24 -14 24 -12 0 -21 -6 -21 -13
0 -7 -4 -13 -10 -13 -5 0 -10 11 -10 24 0 13 -3 31 -6 40 -4 12 0 16 15 16 12
0 21 5 21 10 0 7 7 7 21 0 17 -9 23 -8 33 6 7 10 11 26 8 36 -5 20 -22 25 -23
6 0 -7 -4 -4 -9 7 -11 27 -12 37 -1 31 5 -3 14 1 21 9 10 12 10 15 0 15 -10 0
-10 3 0 15 10 12 10 19 2 27 -9 9 -12 8 -12 -5 0 -9 -4 -17 -10 -17 -5 0 -10
5 -10 10 0 6 -4 10 -9 10 -10 0 -7 -65 4 -99 3 -12 2 -21 -4 -21 -5 0 -13 30
-17 68 -6 65 -22 124 -24 92 0 -13 -1 -13 -10 0 -5 8 -9 22 -9 30 0 10 2 11 6
3 8 -21 22 -15 16 7 -3 11 -12 20 -19 20 -8 0 -14 7 -14 16 0 14 3 14 15 4 13
-11 14 -10 9 4 -3 9 -14 16 -24 16 -9 0 -25 9 -35 20 -13 14 -22 17 -29 10 -5
-5 -17 -10 -25 -10 -13 1 -13 2 2 11 24 14 21 38 -8 82 -26 37 -63 53 -51 21
15 -40 19 -67 7 -60 -6 4 -11 14 -11 23 0 21 -40 91 -70 123 -42 44 -98 82
-111 74 -8 -5 -9 -3 -4 6 6 10 4 12 -9 7 -10 -4 -15 -3 -11 3 3 6 -2 13 -12
17 -10 4 -40 20 -67 35 -83 49 -244 114 -432 173 -572 181 -643 206 -780 274
-303 150 -527 360 -649 606 -24 50 -81 198 -125 330 -45 132 -101 282 -125
334 -85 177 -187 291 -324 359 -69 34 -81 37 -175 39 -56 1 -119 -3 -141 -9z
m-815 -682 c0 -3 -4 -8 -10 -11 -5 -3 -10 -1 -10 4 0 6 5 11 10 11 6 0 10 -2
10 -4z m-70 -186 c0 -5 -4 -10 -9 -10 -6 0 -13 5 -16 10 -3 6 1 10 9 10 9 0
16 -4 16 -10z m30 -45 c0 -14 -4 -25 -9 -25 -4 0 -6 11 -3 25 2 14 6 25 8 25
2 0 4 -11 4 -25z m-50 -36 c0 -11 -4 -17 -10 -14 -5 3 -10 13 -10 21 0 8 5 14
10 14 6 0 10 -9 10 -21z m43 -29 c-7 -28 -13 -25 -13 6 0 14 4 23 9 20 5 -3 7
-15 4 -26z m-56 -82 c-3 -8 -6 -5 -6 6 -1 11 2 17 5 13 3 -3 4 -12 1 -19z m0
-50 c-3 -7 -5 -2 -5 12 0 14 2 19 5 13 2 -7 2 -19 0 -25z m38 -78 c3 -5 -1
-10 -10 -10 -9 0 -13 5 -10 10 3 6 8 10 10 10 2 0 7 -4 10 -10z m-45 -80 c0
-11 -4 -20 -10 -20 -5 0 -10 9 -10 20 0 11 5 20 10 20 6 0 10 -9 10 -20z m4
-222 c4 -17 2 -28 -4 -28 -5 0 -10 14 -10 32 0 36 4 35 14 -4z m110 -83 c3 -8
1 -15 -4 -15 -6 0 -10 7 -10 15 0 8 2 15 4 15 2 0 6 -7 10 -15z m-94 -45 c0
-5 -4 -10 -10 -10 -5 0 -10 5 -10 10 0 6 5 10 10 10 6 0 10 -4 10 -10z m10
-70 c0 -5 -4 -10 -10 -10 -5 0 -10 5 -10 10 0 6 5 10 10 10 6 0 10 -4 10 -10z
m114 -46 c9 -24 2 -26 -12 -4 -7 11 -8 20 -3 20 5 0 12 -7 15 -16z m-24 -24
c0 -5 -4 -10 -10 -10 -5 0 -10 5 -10 10 0 6 5 10 10 10 6 0 10 -4 10 -10z m20
-66 c0 -8 -5 -12 -10 -9 -6 4 -8 11 -5 16 9 14 15 11 15 -7z m23 -80 c-8 -22
-26 -17 -20 6 3 11 1 23 -4 26 -5 3 -9 10 -9 16 0 6 9 1 19 -11 11 -13 17 -29
14 -37z m27 -34 c0 -5 -4 -10 -10 -10 -5 0 -10 5 -10 10 0 6 5 10 10 10 6 0
10 -4 10 -10z m2 -38 c-7 -5 -10 -17 -7 -28 6 -19 6 -19 -9 0 -16 20 -7 36 19
36 6 0 4 -4 -3 -8z m39 -115 c-7 -7 -5 -14 7 -23 19 -15 5 -19 -17 -5 -8 5
-11 16 -6 30 3 12 11 18 17 15 6 -4 6 -10 -1 -17z m39 -57 c0 -5 -9 -10 -19
-10 -11 0 -23 5 -26 10 -4 6 5 10 19 10 14 0 26 -4 26 -10z m3578 -136 c-4 -3
-12 5 -18 18 -12 22 -12 22 6 6 10 -10 15 -20 12 -24z m-38 -4 c0 -5 -5 -10
-11 -10 -5 0 -7 5 -4 10 3 6 8 10 11 10 2 0 4 -4 4 -10z m77 -24 c-5 -16 -24
-18 -30 -2 -4 10 0 14 14 13 10 -1 18 -6 16 -11z m-42 -16 c3 -5 2 -10 -4 -10
-5 0 -13 5 -16 10 -3 6 -2 10 4 10 5 0 13 -4 16 -10z m-3548 -22 c-3 -8 -6 -5
-6 6 -1 11 2 17 5 13 3 -3 4 -12 1 -19z m3723 -50 c0 -4 -4 -8 -10 -8 -5 0
-10 4 -10 9 0 5 -3 18 -6 28 -5 16 -4 16 10 -1 9 -11 16 -23 16 -28z m-3682
-13 c-3 -3 -9 2 -12 12 -6 14 -5 15 5 6 7 -7 10 -15 7 -18z m3612 4 c0 -11 -4
-17 -10 -14 -5 3 -10 13 -10 21 0 8 5 14 10 14 6 0 10 -9 10 -21z m23 -60 c15
-7 27 -24 33 -48 20 -73 -29 -65 -54 9 -19 54 -17 57 21 39z m-68 -40 c4 -6
14 -8 22 -5 9 4 13 1 10 -6 -2 -7 -12 -12 -21 -11 -14 1 -16 -4 -11 -25 l7
-27 -29 28 c-16 15 -35 27 -43 27 -12 0 -12 2 -1 13 11 10 14 10 18 0 3 -7 11
-13 19 -13 8 0 11 6 8 15 -7 17 11 21 21 4z m53 -67 c2 -12 12 -27 24 -33 18
-10 19 -11 2 -23 -9 -7 -14 -18 -10 -24 4 -7 1 -12 -9 -12 -12 0 -16 8 -13 30
1 17 -3 34 -9 38 -15 9 -13 54 2 49 5 -2 11 -13 13 -25z m142 -8 c0 -8 -4 -12
-10 -9 -5 3 -10 10 -10 16 0 5 5 9 10 9 6 0 10 -7 10 -16z m-57 -27 c-5 -8 -8
-8 -10 0 -3 7 -12 9 -21 6 -15 -6 -15 -5 -3 10 10 13 17 15 27 6 8 -6 11 -16
7 -22z m-29 -52 c-7 -16 -24 -21 -24 -6 0 8 7 13 27 20 1 1 0 -6 -3 -14z
m-100 -41 c8 -21 8 -24 -3 -24 -5 0 -11 9 -14 20 -6 24 8 27 17 4z m110 -19
c3 -8 1 -15 -4 -15 -6 0 -10 7 -10 15 0 8 2 15 4 15 2 0 6 -7 10 -15z m85 -61
c-5 -6 -7 -18 -5 -25 11 -31 13 -90 4 -87 -5 2 -9 6 -9 8 0 3 -6 27 -14 54
-17 54 -15 62 14 62 14 0 17 -4 10 -12z m-86 -57 c3 -8 1 -20 -4 -28 -5 -9 -9
-9 -9 -2 0 6 -3 18 -6 27 -3 9 -2 16 4 16 5 0 12 -6 15 -13z m147 -42 c10 -12
10 -19 2 -27 -9 -9 -12 -8 -12 5 0 9 -7 17 -15 17 -8 0 -15 5 -15 10 0 15 26
12 40 -5z m-44 -46 c3 -6 1 -16 -5 -22 -8 -8 -11 -7 -11 5 0 9 -6 19 -12 21
-8 3 -7 6 4 6 9 1 20 -4 24 -10z m88 -15 c3 -9 2 -12 -5 -9 -6 4 -10 1 -8 -6
5 -41 -2 -100 -12 -94 -10 7 -6 60 7 108 6 21 10 21 18 1z m-114 -14 c0 -5 -2
-10 -4 -10 -3 0 -8 5 -11 10 -3 6 -1 10 4 10 6 0 11 -4 11 -10z m136 -9 c-3
-4 -1 -22 4 -40 7 -24 6 -31 -6 -31 -14 0 -21 60 -7 73 9 10 15 9 9 -2z m-97
-10 c20 -13 31 -94 14 -110 -10 -9 -13 -9 -13 4 0 8 -4 15 -10 15 -5 0 -10 -9
-10 -20 0 -11 -4 -20 -10 -20 -5 0 -10 14 -10 30 0 17 5 30 10 30 15 0 8 33
-10 47 -13 11 -13 14 0 23 18 12 21 12 39 1z m-59 -72 c0 -6 -4 -7 -10 -4 -5
3 -10 11 -10 16 0 6 5 7 10 4 6 -3 10 -11 10 -16z m335 -37 c-8 -8 -25 10 -19
20 4 6 9 5 15 -3 4 -7 6 -15 4 -17z m-338 -14 c-3 -8 -6 -5 -6 6 -1 11 2 17 5
13 3 -3 4 -12 1 -19z m198 3 c3 -9 0 -11 -10 -7 -8 3 -15 1 -15 -3 0 -5 -9 -7
-19 -4 -11 3 -18 10 -15 16 6 17 53 15 59 -2z m-88 -33 c-3 -8 -6 -5 -6 6 -1
11 2 17 5 13 3 -3 4 -12 1 -19z m-27 -28 c0 -5 -4 -10 -10 -10 -5 0 -10 5 -10
10 0 6 5 10 10 10 6 0 10 -4 10 -10z m-27 -61 c-5 -19 -7 -19 -15 -5 -10 18
-2 39 12 31 4 -3 6 -15 3 -26z m37 -9 c0 -11 -4 -20 -10 -20 -5 0 -10 9 -10
20 0 11 5 20 10 20 6 0 10 -9 10 -20z m70 -34 c0 -3 -4 -8 -10 -11 -5 -3 -10
-1 -10 4 0 6 5 11 10 11 6 0 10 -2 10 -4z m-80 -34 c0 -29 -34 -71 -46 -59 -4
4 1 9 10 13 10 4 16 18 16 40 0 19 5 34 10 34 6 0 10 -13 10 -28z m65 6 c6 -4
2 -8 -7 -8 -10 0 -18 7 -18 17 0 9 3 12 8 7 4 -5 12 -12 17 -16z m0 -44 c13
-18 8 -64 -7 -64 -5 0 -6 5 -2 11 4 8 -1 9 -17 4 -21 -7 -22 -6 -11 8 9 11 10
17 2 22 -8 5 -8 11 1 21 15 18 19 18 34 -2z m-135 -4 c0 -5 -5 -10 -11 -10 -5
0 -7 5 -4 10 3 6 8 10 11 10 2 0 4 -4 4 -10z m190 -35 c-9 -11 -10 -15 0 -15
6 0 2 -11 -10 -27 -12 -16 -17 -29 -11 -31 20 -7 11 -32 -10 -32 -17 0 -20 4
-15 23 4 12 9 35 11 51 4 28 19 46 39 46 5 0 3 -7 -4 -15z m-130 -5 c0 -5 -4
-10 -10 -10 -5 0 -10 5 -10 10 0 6 5 10 10 10 6 0 10 -4 10 -10z m70 -34 c0
-3 -4 -8 -10 -11 -5 -3 -10 -1 -10 4 0 6 5 11 10 11 6 0 10 -2 10 -4z m-19
-73 c-9 -16 -10 -15 -11 8 0 14 3 29 8 33 12 12 14 -22 3 -41z m-44 5 c-3 -8
-6 -5 -6 6 -1 11 2 17 5 13 3 -3 4 -12 1 -19z m92 -20 c-4 -30 2 -43 11 -23 8
18 9 17 9 -7 1 -33 -8 -58 -21 -58 -5 0 -6 5 -3 10 3 6 1 10 -4 10 -6 0 -11
-6 -11 -14 0 -8 -6 -16 -12 -18 -10 -4 -10 -10 -1 -31 10 -21 9 -28 -3 -38 -9
-7 -14 -23 -11 -36 3 -16 -2 -24 -17 -29 -12 -4 -29 -15 -39 -25 -15 -16 -15
-19 -2 -19 8 0 15 5 15 11 0 5 5 7 11 4 6 -5 3 -13 -10 -22 -22 -15 -29 -59
-11 -65 7 -2 5 -11 -4 -23 -15 -20 -15 -20 -9 3 9 37 -5 25 -26 -23 -11 -25
-25 -45 -30 -45 -15 0 -13 11 4 34 8 11 15 29 15 40 0 16 -6 11 -25 -19 -13
-22 -28 -49 -34 -60 -11 -24 -61 -72 -61 -59 0 11 27 51 48 73 7 7 11 18 9 24
-2 6 5 19 15 29 10 10 18 25 18 33 0 8 5 15 10 15 6 0 10 7 10 15 0 8 5 15 10
15 6 0 10 18 10 41 0 34 3 40 16 35 15 -6 15 -4 3 11 -12 15 -12 16 3 10 12
-4 15 -2 12 8 -3 7 0 24 7 37 14 25 16 30 18 54 1 10 7 14 15 11 10 -4 19 6
27 31 14 43 28 72 35 72 3 0 4 -6 3 -12z m-159 -73 c-16 -47 -31 -45 -18 3 13
46 20 60 26 44 2 -6 -2 -28 -8 -47z m57 -50 c0 -8 -4 -15 -9 -15 -10 0 -11 14
-1 23 9 10 10 9 10 -8z m276 -42 c-7 -2 -9 -11 -6 -19 4 -10 0 -12 -11 -8 -19
7 -19 9 -5 36 8 16 13 17 22 8 9 -10 9 -14 0 -17z m-39 -28 c3 -9 0 -15 -9
-15 -8 0 -15 7 -15 15 0 8 4 15 9 15 5 0 11 -7 15 -15z m-142 -37 c-7 -7 -12
-8 -12 -2 0 14 12 26 19 19 2 -3 -1 -11 -7 -17z m-217 2 c-3 -5 -12 -10 -18
-10 -7 0 -6 4 3 10 19 12 23 12 15 0z m49 -15 c-6 -16 -34 -21 -34 -7 0 13 11
22 26 22 8 0 11 -6 8 -15z m-38 -51 c-3 -9 -6 -18 -6 -20 0 -2 -4 -4 -9 -4 -5
0 -7 9 -4 20 3 11 10 20 15 20 6 0 7 -7 4 -16z m-21 -87 c-8 -13 -12 -27 -8
-30 3 -4 1 -7 -5 -7 -10 0 -28 -37 -25 -51 3 -11 -45 -64 -52 -57 -5 5 21 62
53 113 7 10 8 16 11 36 0 5 6 7 11 4 6 -3 10 -1 10 4 0 6 5 11 10 11 6 0 4
-10 -5 -23z m355 9 c0 -3 -4 -8 -10 -11 -5 -3 -10 -1 -10 4 0 6 5 11 10 11 6
0 10 -2 10 -4z m-290 -87 c0 -15 -26 -39 -42 -39 -8 0 -6 -5 5 -11 14 -8 15
-14 7 -24 -14 -17 -41 -8 -38 12 3 17 49 72 61 73 4 0 7 -5 7 -11z m64 -5 c3
-8 2 -12 -4 -9 -6 3 -10 10 -10 16 0 14 7 11 14 -7z m-248 -66 c-15 -21 -16
-22 -16 -2 0 11 6 26 12 32 19 19 22 -4 4 -30z m224 38 c0 -2 -8 -10 -17 -17
-16 -13 -17 -12 -4 4 13 16 21 21 21 13z m-60 -85 c-25 -36 -36 -41 -19 -8 16
31 31 48 37 43 2 -3 -6 -19 -18 -35z m-171 -56 c-18 -25 -39 -45 -47 -45 -12
0 -10 6 6 23 12 13 22 31 22 41 0 9 5 14 10 11 6 -3 10 2 10 12 0 11 6 25 13
32 10 10 13 8 15 -8 2 -12 -11 -41 -29 -66z m135 53 c-4 -5 -14 -8 -23 -5 -16
4 -29 -8 -78 -72 -7 -9 -13 -12 -13 -8 0 9 50 78 64 88 13 10 56 7 50 -3z
m-179 -8 c4 -6 3 -10 -2 -9 -20 3 -27 -2 -13 -11 18 -11 8 -23 -13 -14 -13 5
-14 9 -4 25 13 21 23 24 32 9z m172 -28 c17 -11 9 -46 -10 -50 -20 -4 -21 2
-7 28 9 16 8 18 -6 13 -12 -4 -15 -3 -10 5 8 14 16 15 33 4z m-371 -49 c-10
-10 -19 5 -10 18 6 11 8 11 12 0 2 -7 1 -15 -2 -18z m178 12 c-4 -8 -7 -15 -9
-15 -2 0 -5 7 -9 15 -3 9 0 15 9 15 9 0 12 -6 9 -15z m151 5 c3 -5 -1 -10 -10
-10 -9 0 -13 5 -10 10 3 6 8 10 10 10 2 0 7 -4 10 -10z m-75 -30 c0 -5 -5 -10
-11 -10 -5 0 -7 5 -4 10 3 6 8 10 11 10 2 0 4 -4 4 -10z m65 0 c3 -5 -1 -10
-10 -10 -9 0 -13 5 -10 10 3 6 8 10 10 10 2 0 7 -4 10 -10z m-146 -32 c-9 -16
-14 -19 -17 -9 -2 7 2 17 9 22 20 13 21 11 8 -13z m262 4 c-11 -21 -51 -58
-51 -48 0 5 9 21 21 37 22 32 46 41 30 11z m-201 -2 c0 -5 -7 -10 -17 -10 -9
0 -14 -3 -10 -6 3 -3 -5 -16 -17 -28 -13 -11 -25 -29 -27 -38 -3 -12 -8 -15
-17 -9 -10 6 -4 18 22 47 20 21 36 42 36 47 0 11 30 8 30 -3z m66 -15 c-14
-13 -26 -29 -26 -35 0 -5 -7 -10 -16 -10 -13 0 -13 4 2 30 16 26 29 35 58 39
5 0 -3 -10 -18 -24z m-177 -16 c-12 -17 -37 -46 -56 -65 -18 -18 -33 -38 -33
-43 0 -5 -7 -11 -15 -15 -9 -3 -15 0 -15 9 0 8 6 15 13 16 6 0 3 4 -8 9 -14 6
-16 9 -4 9 8 1 28 15 44 31 16 17 34 30 40 30 6 0 18 11 25 25 7 14 17 25 22
25 5 0 -1 -14 -13 -31z m201 -24 c-24 -25 -48 -45 -52 -45 -4 0 14 22 40 49
26 27 49 47 51 45 3 -3 -15 -25 -39 -49z m-430 25 c0 -5 -5 -10 -11 -10 -5 0
-7 5 -4 10 3 6 8 10 11 10 2 0 4 -4 4 -10z m170 0 c0 -5 -5 -10 -11 -10 -5 0
-7 5 -4 10 3 6 8 10 11 10 2 0 4 -4 4 -10z m310 -45 c0 -8 -4 -15 -10 -15 -5
0 -10 7 -10 15 0 8 5 15 10 15 6 0 10 -7 10 -15z m-130 -3 c0 -5 -14 -22 -30
-38 -17 -16 -35 -37 -41 -47 -10 -18 -9 -18 15 -2 29 19 35 12 10 -12 -8 -9
-26 -15 -40 -15 -18 0 -22 -4 -15 -11 16 -16 13 -30 -5 -23 -21 8 -106 -65
-93 -80 6 -7 4 -16 -6 -24 -8 -7 -15 -9 -15 -5 0 4 -16 -9 -36 -29 -20 -20
-40 -36 -46 -36 -5 0 -6 -10 -3 -22 6 -17 4 -20 -9 -15 -9 4 -16 2 -16 -4 0
-5 -15 -16 -32 -24 -18 -8 -30 -14 -26 -15 3 0 -3 -11 -15 -24 -23 -26 -39
-27 -18 -2 9 11 9 15 -1 19 -21 7 6 30 36 30 33 0 45 17 14 18 -17 1 -18 3 -5
6 20 5 23 19 5 25 -10 4 -8 9 3 21 19 18 31 13 22 -10 -5 -13 -3 -13 16 -2 12
8 17 15 11 17 -12 4 -13 22 -1 22 16 0 73 52 191 172 108 111 130 130 130 110z
m-340 -32 c0 -5 -5 -10 -11 -10 -5 0 -7 5 -4 10 3 6 8 10 11 10 2 0 4 -4 4
-10z m235 0 c3 -5 1 -10 -4 -10 -6 0 -11 -6 -11 -14 0 -8 -12 -17 -26 -20 -14
-4 -38 -18 -52 -31 -14 -13 -28 -23 -30 -20 -6 6 62 64 76 65 6 0 12 9 12 20
0 21 24 28 35 10z m192 -27 c-10 -10 -17 -12 -17 -6 0 7 5 15 10 18 6 4 7 12
4 18 -5 8 -2 8 7 -1 11 -10 10 -15 -4 -29z m153 27 c0 -5 -2 -10 -4 -10 -3 0
-8 5 -11 10 -3 6 -1 10 4 10 6 0 11 -4 11 -10z m-510 -35 c-7 -8 -18 -15 -24
-15 -6 0 -2 7 8 15 25 19 32 19 16 0z m8 -43 c-13 -9 -29 -22 -36 -29 -15 -14
-32 -17 -32 -5 1 11 74 61 83 55 5 -3 -2 -12 -15 -21z m112 4 c0 -3 -4 -8 -10
-11 -5 -3 -10 -1 -10 4 0 6 5 11 10 11 6 0 10 -2 10 -4z m-205 -47 c-5 -15 -4
-19 4 -15 6 4 11 2 11 -4 0 -6 -8 -13 -17 -17 -10 -3 -30 -15 -45 -25 -24 -17
-28 -17 -28 -4 0 10 9 16 23 16 18 0 19 2 7 11 -13 9 -13 10 2 6 12 -4 18 2
23 24 4 16 11 29 16 29 6 0 7 -9 4 -21z m309 6 c-10 -8 -23 -15 -28 -15 -6 0
-1 7 10 15 10 8 23 15 28 15 6 0 1 -7 -10 -15z m-64 -45 c-8 -5 -19 -10 -25
-10 -5 0 -3 5 5 10 8 5 20 10 25 10 6 0 3 -5 -5 -10z m-170 -4 c0 -11 -19 -15
-25 -6 -3 5 1 10 9 10 9 0 16 -2 16 -4z m-164 -55 c-3 -5 -15 -11 -26 -14 -17
-4 -19 -3 -9 9 12 15 44 20 35 5z m54 -4 c0 -2 -12 -14 -27 -28 l-28 -24 24
28 c23 25 31 32 31 24z m-110 -27 c0 -5 -7 -10 -15 -10 -9 0 -18 -7 -21 -15
-4 -8 -13 -15 -21 -15 -28 0 16 40 55 49 1 1 2 -3 2 -9z m430 2 c0 -11 -41
-45 -47 -39 -6 6 28 47 39 47 5 0 8 -3 8 -8z m-396 -56 c-3 -7 2 -16 11 -20 9
-3 13 -2 10 4 -8 12 5 13 24 1 11 -7 8 -12 -14 -23 -25 -14 -26 -16 -11 -31
15 -15 14 -18 -21 -40 -30 -19 -41 -21 -60 -13 -21 10 -20 11 15 16 53 8 66
18 48 35 -12 13 -19 13 -50 0 -41 -18 -56 -19 -56 -5 0 6 7 10 15 10 7 0 19 8
25 18 8 12 13 13 16 5 3 -7 11 -13 17 -13 5 0 7 3 4 7 -4 3 1 12 11 20 15 13
15 13 -8 7 l-25 -7 25 21 c30 25 31 26 24 8z m284 -38 c-7 -13 -13 -24 -14
-26 -1 -1 -8 0 -17 4 -15 5 -14 8 6 25 30 25 40 24 25 -3z m-598 -7 c0 -5 -10
-11 -22 -14 -22 -6 -22 -6 -4 8 23 17 26 18 26 6z m158 4 c-11 -11 -58 -15
-58 -5 0 5 14 10 32 10 17 0 29 -2 26 -5z m-213 -25 c3 -5 1 -10 -4 -10 -6 0
-11 5 -11 10 0 6 2 10 4 10 3 0 8 -4 11 -10z m-120 -20 c-3 -5 -11 -10 -16
-10 -6 0 -7 5 -4 10 3 6 11 10 16 10 6 0 7 -4 4 -10z m355 -15 c-7 -8 -22 -15
-34 -15 -17 1 -16 3 9 15 39 18 40 18 25 0z m-413 -1 c-3 -3 -12 -4 -19 -1 -8
3 -5 6 6 6 11 1 17 -2 13 -5z m633 -14 c-8 -5 -19 -10 -25 -10 -5 0 -3 5 5 10
8 5 20 10 25 10 6 0 3 -5 -5 -10z m-285 -10 c-3 -5 -16 -10 -28 -10 -18 0 -19
2 -7 10 20 13 43 13 35 0z m-200 -20 c-3 -5 -13 -10 -21 -10 -8 0 -12 5 -9 10
3 6 13 10 21 10 8 0 12 -4 9 -10z m145 0 c0 -5 -4 -10 -10 -10 -5 0 -10 5 -10
10 0 6 5 10 10 10 6 0 10 -4 10 -10z m200 1 c0 -11 -69 -20 -76 -10 -2 4 13
10 33 12 21 2 39 4 41 5 1 1 2 -2 2 -7z m-239 -14 c-1 -12 -15 -9 -19 4 -3 6
1 10 8 8 6 -3 11 -8 11 -12z"/>
<path d="M7570 6289 c0 -4 7 -20 15 -35 8 -16 15 -22 15 -13 0 14 -29 61 -30
48z"/>
<path d="M7730 5779 c0 -5 5 -7 10 -4 6 3 10 8 10 11 0 2 -4 4 -10 4 -5 0 -10
-5 -10 -11z"/>
<path d="M8027 8401 c-33 -36 -34 -62 -3 -95 30 -33 51 -33 87 1 36 35 36 51
1 91 -35 39 -50 40 -85 3z m67 -16 c14 -13 26 -26 26 -29 0 -10 -48 -56 -59
-56 -6 0 -11 7 -11 15 0 8 -5 15 -10 15 -21 0 -20 28 2 53 13 15 23 27 24 27
1 0 13 -11 28 -25z"/>
<path d="M2879 8191 c49 -59 69 -76 78 -67 7 7 -96 116 -110 116 -5 0 9 -22
32 -49z"/>
<path d="M6480 7912 c-18 -18 -30 -41 -30 -57 0 -33 42 -75 75 -75 14 0 37 11
50 25 45 44 24 116 -37 131 -22 5 -33 0 -58 -24z m78 -8 c41 -28 18 -104 -31
-104 -51 0 -74 63 -37 100 24 24 38 25 68 4z"/>
<path d="M1660 7611 c0 -11 5 -21 10 -21 6 0 10 -32 10 -75 0 -43 -4 -75 -10
-75 -5 0 -10 -11 -10 -25 0 -20 6 -25 38 -29 121 -18 203 -39 266 -69 187 -90
327 -250 395 -453 20 -60 46 -212 38 -220 -2 -3 -171 9 -375 26 -316 27 -376
29 -399 18 -52 -25 -56 -102 -7 -134 28 -19 -2 -20 573 28 173 14 255 17 260
10 8 -13 125 -20 131 -7 3 6 -18 12 -50 16 l-55 6 73 1 72 2 0 73 c-1 95 -30
224 -77 339 -141 340 -446 566 -815 604 -65 6 -68 5 -68 -15z m145 -98 c-8
-78 -11 -83 -31 -83 -12 0 -14 7 -10 28 3 15 8 48 12 75 4 32 11 47 21 47 12
0 13 -12 8 -67z m135 26 c0 -19 -32 -124 -40 -133 -5 -4 -13 -6 -18 -2 -14 9
28 146 45 146 7 0 13 -5 13 -11z m126 -56 c-29 -80 -53 -123 -69 -123 -16 0
-16 3 -2 35 8 19 22 51 30 70 16 36 53 52 41 18z m103 -90 c-53 -88 -65 -103
-76 -92 -15 15 56 129 80 129 17 0 17 -3 -4 -37z m121 -54 c0 -15 -88 -119
-101 -119 -20 0 -7 28 37 78 45 51 64 63 64 41z m94 -98 c3 -5 -21 -32 -53
-60 -41 -36 -62 -48 -67 -39 -5 7 12 29 47 60 56 50 64 54 73 39z m76 -121 c0
-16 -111 -82 -128 -75 -18 7 -17 8 49 50 55 35 79 43 79 25z m65 -120 c6 -9
-113 -70 -136 -70 -27 0 -1 25 54 50 69 33 73 34 82 20z m42 -137 c2 -5 -24
-18 -59 -28 -34 -9 -68 -20 -76 -23 -9 -3 -13 1 -11 13 3 13 22 24 64 35 65
19 77 19 82 3z m23 -137 c0 -8 -17 -16 -46 -20 -67 -9 -104 -8 -104 4 0 13 28
19 133 28 9 1 17 -4 17 -12z"/>
<path d="M1525 7538 c14 -92 17 -108 24 -108 4 0 2 34 -3 75 -5 41 -13 75 -19
75 -5 0 -6 -18 -2 -42z"/>
<path d="M1390 7539 c0 -20 32 -124 41 -133 13 -14 11 6 -7 79 -9 36 -20 65
-25 65 -5 0 -9 -5 -9 -11z"/>
<path d="M1260 7496 c0 -14 62 -137 67 -132 8 8 -47 136 -58 136 -5 0 -9 -2
-9 -4z"/>
<path d="M0 7430 c0 -9 32 -47 70 -85 39 -38 70 -64 70 -58 0 17 -139 160
-140 143z"/>
<path d="M1150 7417 c0 -19 73 -123 77 -110 4 10 -62 123 -72 123 -3 0 -5 -6
-5 -13z"/>
<path d="M1040 7333 c1 -15 89 -108 96 -101 7 8 -73 108 -87 108 -5 0 -9 -3
-9 -7z"/>
<path d="M950 7232 c0 -14 100 -95 108 -87 4 3 -16 26 -43 50 -50 44 -65 53
-65 37z"/>
<path d="M870 7121 c0 -8 104 -81 115 -81 19 0 -3 25 -50 55 -59 37 -65 40
-65 26z"/>
<path d="M810 6997 c0 -13 120 -70 129 -62 8 9 -12 22 -71 49 -38 16 -58 21
-58 13z"/>
<path d="M760 6861 c0 -5 29 -16 65 -25 75 -19 75 -19 75 -7 0 4 -26 16 -58
25 -66 18 -82 20 -82 7z"/>
<path d="M4612 6818 c-20 -21 -32 -23 -117 -23 -92 1 -119 -6 -72 -19 80 -21
205 3 228 45 14 27 -11 25 -39 -3z"/>
<path d="M1041 6754 c0 -11 3 -14 6 -6 3 7 2 16 -1 19 -3 4 -6 -2 -5 -13z"/>
<path d="M740 6723 c0 -11 129 -28 138 -18 11 10 -6 16 -72 22 -42 4 -66 2
-66 -4z"/>
<path d="M1032 6580 c0 -19 2 -27 5 -17 2 9 2 25 0 35 -3 9 -5 1 -5 -18z"/>
<path d="M735 6590 c-3 -5 -1 -11 3 -14 14 -8 142 6 142 15 0 11 -138 10 -145
-1z"/>
<path d="M1041 6494 c0 -11 3 -14 6 -6 3 7 2 16 -1 19 -3 4 -6 -2 -5 -13z"/>
<path d="M808 6467 c-33 -6 -58 -15 -58 -22 0 -10 12 -10 48 -3 86 17 92 18
92 28 0 11 -2 11 -82 -3z"/>
<path d="M2440 6470 c0 -5 10 -12 23 -15 85 -19 108 -22 113 -14 6 11 -2 14
-74 28 -64 13 -62 13 -62 1z"/>
<path d="M838 6338 c-32 -11 -58 -24 -58 -29 0 -5 3 -9 8 -9 18 0 132 44 132
52 0 12 -18 9 -82 -14z"/>
<path d="M2410 6351 c0 -4 26 -18 59 -30 65 -24 71 -25 71 -12 0 8 -102 51
-121 51 -5 0 -9 -4 -9 -9z"/>
<path d="M3949 6349 c-14 -9 -6 -12 23 -10 10 1 15 -4 14 -14 -1 -9 9 -30 23
-47 48 -57 134 -139 140 -133 3 4 -14 26 -39 49 -49 47 -90 99 -90 116 0 5 -7
10 -15 10 -8 0 -12 6 -9 14 6 16 -28 27 -47 15z"/>
<path d="M7750 6276 c0 -5 5 -26 12 -47 11 -39 38 -54 38 -21 -1 17 -50 85
-50 68z"/>
<path d="M893 6218 c-29 -16 -53 -34 -53 -39 0 -12 -2 -13 68 24 28 15 52 32
52 37 0 14 -8 11 -67 -22z"/>
<path d="M2360 6240 c0 -8 110 -70 125 -70 3 0 5 4 5 10 0 8 -110 70 -125 70
-3 0 -5 -4 -5 -10z"/>
<path d="M957 6105 c-32 -24 -54 -46 -49 -49 8 -5 33 12 111 70 1 2 1 7 0 13
-2 5 -30 -10 -62 -34z"/>
<path d="M2300 6140 c0 -9 101 -90 113 -90 18 0 2 19 -47 58 -57 44 -66 48
-66 32z"/>
<path d="M7860 6081 c0 -31 11 -50 25 -45 10 4 10 11 -2 35 -17 34 -23 37 -23
10z"/>
<path d="M1037 6002 c-26 -27 -45 -51 -41 -54 6 -6 104 85 104 97 0 14 -20 1
-63 -43z"/>
<path d="M2270 5995 c29 -30 58 -52 63 -48 12 7 -83 103 -102 103 -9 0 8 -23
39 -55z"/>
<path d="M7899 6025 c-4 -23 -1 -76 4 -82 11 -11 8 -35 -4 -28 -7 5 -9 -6 -7
-31 2 -30 7 -38 26 -40 12 -2 22 1 22 7 0 6 8 9 19 6 14 -3 17 0 14 14 -3 11
-8 19 -12 19 -4 0 -8 12 -9 26 -3 42 -48 135 -53 109z m41 -115 c0 -5 -5 -10
-11 -10 -5 0 -7 5 -4 10 3 6 8 10 11 10 2 0 4 -4 4 -10z"/>
<path d="M1130 5917 c-22 -30 -40 -57 -40 -60 0 -18 20 -2 51 40 47 64 52 73
40 73 -6 0 -28 -24 -51 -53z"/>
<path d="M2140 5963 c0 -12 82 -115 87 -109 5 5 -19 43 -61 99 -13 17 -26 22
-26 10z"/>
<path d="M1238 5849 c-20 -35 -34 -68 -31 -72 7 -12 76 110 71 125 -2 6 -20
-17 -40 -53z"/>
<path d="M2047 5904 c-7 -7 48 -119 63 -129 18 -11 11 14 -23 75 -19 33 -36
57 -40 54z"/>
<path d="M1363 5833 c-3 -10 -14 -39 -24 -65 -10 -26 -14 -50 -9 -53 4 -3 17
18 28 47 11 29 23 61 27 71 4 10 3 17 -4 17 -7 0 -14 -8 -18 -17z"/>
<path d="M1940 5844 c0 -8 42 -127 47 -133 2 -2 6 -2 9 2 7 7 -35 125 -47 133
-5 3 -9 2 -9 -2z"/>
<path d="M7940 5826 c0 -2 5 -17 12 -33 6 -15 10 -32 9 -38 -1 -5 3 -5 9 2 7
6 9 17 4 25 -5 7 -9 19 -9 27 0 13 -25 30 -25 17z"/>
<path d="M7980 5816 c0 -9 5 -16 10 -16 6 0 10 4 10 9 0 6 -4 13 -10 16 -5 3
-10 -1 -10 -9z"/>
<path d="M1468 5753 c-17 -76 -10 -112 7 -43 20 79 25 110 16 110 -4 0 -15
-30 -23 -67z"/>
<path d="M1830 5801 c0 -30 21 -114 31 -125 12 -14 11 12 -3 76 -12 58 -28 85
-28 49z"/>
<path d="M7907 5803 c-9 -14 8 -33 21 -24 10 6 10 10 -2 20 -8 7 -17 8 -19 4z"/>
<path d="M1598 5794 c-5 -4 -8 -39 -8 -78 0 -49 3 -67 10 -60 6 6 10 40 8 78
-2 37 -6 64 -10 60z"/>
<path d="M1716 5728 c7 -73 10 -86 19 -77 8 9 -8 149 -17 149 -5 0 -6 -30 -2
-72z"/>
<path d="M7947 5390 c3 -11 12 -20 19 -20 18 0 18 8 0 26 -20 19 -25 18 -19
-6z"/>
<path d="M8801 5024 c-89 -70 -161 -131 -161 -135 0 -10 272 -392 300 -423 12
-12 20 -14 24 -7 4 6 1 11 -6 12 -12 0 -98 111 -98 127 0 4 15 17 33 30 17 12
43 31 56 42 l23 20 -51 74 -51 74 50 37 c28 21 49 40 46 43 -3 2 -25 -12 -50
-32 -24 -20 -47 -36 -50 -36 -5 0 -96 124 -96 132 0 2 23 21 50 42 58 44 61
43 111 -35 17 -27 34 -48 36 -45 3 2 -15 32 -39 66 l-43 62 45 38 c92 80 27
36 -129 -86z m7 -117 c23 -34 42 -65 42 -68 0 -6 -95 -79 -103 -79 -4 0 -27
28 -52 63 l-46 62 48 42 c26 24 53 43 58 43 6 0 29 -28 53 -63z m107 -153 l44
-60 -55 -43 c-31 -24 -57 -42 -58 -40 -2 2 -24 33 -49 68 l-46 64 47 38 c26
21 53 38 60 36 8 -1 33 -29 57 -63z"/>
<path d="M7886 5085 c-3 -8 -1 -15 4 -15 13 0 22 18 11 24 -5 3 -11 -1 -15 -9z"/>
<path d="M7838 4991 c-3 -21 -1 -28 9 -24 14 6 18 53 4 53 -5 0 -11 -13 -13
-29z"/>
<path d="M7871 4964 c0 -11 3 -14 6 -6 3 7 2 16 -1 19 -3 4 -6 -2 -5 -13z"/>
<path d="M7832 4885 c-32 -83 -62 -140 -73 -140 -7 0 -13 -6 -15 -13 -1 -7 0
-8 3 -2 7 14 23 2 23 -17 0 -8 -6 -13 -12 -10 -9 3 -13 -6 -14 -24 -1 -16 1
-29 4 -29 9 0 32 34 47 69 18 40 18 44 5 36 -5 -3 -10 -1 -10 5 0 6 8 14 18
18 9 4 17 12 17 17 1 6 7 29 14 53 15 51 10 79 -7 37z"/>
<path d="M7866 4784 c-4 -9 -4 -19 -1 -22 2 -3 7 3 11 12 4 9 4 19 1 22 -2 3
-7 -3 -11 -12z"/>
<path d="M7521 4361 c-7 -5 -12 -14 -9 -21 2 -7 10 -4 22 9 19 21 12 28 -13
12z"/>
<path d="M5837 4011 c-4 -17 -3 -21 5 -13 5 5 8 16 6 23 -3 8 -7 3 -11 -10z"/>
<path d="M5850 3885 c0 -14 2 -25 4 -25 2 0 6 11 8 25 3 14 1 25 -3 25 -5 0
-9 -11 -9 -25z"/>
<path d="M5730 3848 c-7 -18 -15 -40 -16 -48 -1 -8 -5 -26 -8 -40 -4 -14 -3
-49 0 -78 5 -41 14 -61 36 -84 28 -29 29 -54 1 -44 -10 4 -13 1 -8 -13 3 -10
8 -36 10 -57 6 -45 24 -140 32 -169 6 -19 6 -19 14 3 5 12 15 22 23 22 8 0 16
10 18 22 2 12 8 23 13 25 12 4 14 -72 3 -83 -5 -4 -8 1 -8 10 0 10 -6 16 -12
13 -13 -4 -14 -7 -2 -94 4 -33 3 -53 -4 -53 -11 0 -1 -60 24 -146 15 -52 17
-54 33 -40 35 31 43 13 11 -22 -13 -14 -16 -22 -8 -22 9 0 9 -3 -2 -10 -13 -8
-11 -11 8 -16 21 -6 31 -24 13 -24 -10 0 1 -56 19 -101 7 -16 20 -29 29 -29 9
0 12 3 6 8 -5 4 -10 24 -11 44 -1 30 1 34 12 23 8 -7 23 -37 34 -67 33 -83 88
-190 103 -196 4 -2 7 -12 7 -23 0 -27 -26 -13 -45 24 -8 16 -15 35 -15 42 0
17 -28 71 -43 84 -11 8 -13 3 -11 -24 3 -33 22 -72 51 -105 7 -8 23 -27 34
-42 19 -26 48 -41 34 -18 -3 6 -2 10 4 10 5 0 13 -10 17 -22 7 -23 52 -68 67
-68 4 0 7 -4 7 -9 0 -5 -19 -11 -42 -15 -81 -13 -273 -58 -390 -92 -135 -39
-152 -42 -85 -12 33 14 46 25 42 35 -3 8 -5 21 -5 29 0 8 -4 14 -10 14 -5 0
-8 -12 -7 -26 2 -20 -5 -28 -30 -39 -27 -11 -32 -11 -37 1 -3 7 2 20 10 29 9
8 11 15 6 15 -5 0 -12 9 -15 20 -3 13 1 21 15 26 15 4 17 9 9 17 -9 9 -17 8
-31 -1 -11 -6 -27 -12 -35 -12 -8 0 -15 -4 -15 -10 0 -10 14 -14 38 -11 6 1
12 -5 12 -14 0 -12 -4 -14 -19 -6 -16 9 -20 6 -26 -22 -4 -18 -8 -34 -9 -37
-4 -17 -19 -28 -41 -32 -21 -4 -25 -1 -25 17 0 33 -38 41 -46 9 -3 -13 -14
-24 -23 -25 -14 0 -14 -1 1 -7 26 -11 8 -28 -37 -36 -22 -4 -60 -16 -84 -27
-45 -20 -76 -25 -67 -11 12 20 14 63 3 59 -7 -3 -11 -10 -9 -17 2 -8 -3 -10
-13 -6 -22 8 -57 -25 -45 -44 11 -18 -6 -40 -30 -40 -10 0 -20 6 -22 13 -6 16
-2 76 5 84 3 3 31 10 63 17 44 8 59 16 65 33 6 17 5 21 -6 16 -8 -3 -12 -9 -9
-14 3 -5 -2 -9 -10 -9 -9 0 -16 6 -17 13 0 6 -4 3 -8 -7 -5 -13 -20 -20 -47
-23 -21 -2 -43 -8 -48 -13 -5 -5 -15 -6 -23 -3 -10 4 -13 -1 -9 -20 2 -14 -2
-34 -10 -46 -9 -12 -12 -21 -9 -21 3 0 1 -9 -5 -21 -7 -13 -17 -18 -27 -15
-13 5 -14 4 -4 -8 15 -18 5 -24 -45 -30 l-39 -5 28 15 c18 10 26 21 23 30 -3
8 1 14 11 14 13 0 11 4 -7 20 -13 11 -30 20 -39 20 -14 0 -14 -2 -1 -10 10 -6
11 -13 5 -17 -6 -5 -16 -20 -22 -34 -9 -22 -27 -32 -97 -54 -48 -15 -89 -31
-92 -36 -3 -5 -14 -9 -25 -9 -10 0 -36 -9 -56 -20 -40 -21 -68 -26 -58 -11 3
5 29 17 57 27 29 9 66 25 83 36 16 10 39 18 51 18 31 0 85 21 79 30 -3 5 1 11
7 13 10 4 10 6 1 6 -18 1 -16 21 2 21 21 0 19 18 -2 23 -14 3 -12 6 10 15 38
16 25 32 -21 26 -31 -4 -34 -3 -14 6 13 5 21 14 17 20 -3 6 -25 2 -56 -10 -64
-25 -73 -25 -59 0 11 20 10 20 -22 7 -21 -9 -32 -20 -30 -30 2 -10 -4 -17 -12
-17 -8 0 -18 -5 -22 -12 -5 -8 -2 -9 9 -5 10 4 17 1 17 -6 0 -24 -16 -36 -60
-46 -40 -9 -43 -8 -26 5 19 13 19 14 -8 14 -19 0 -26 -5 -24 -16 2 -12 -8 -16
-45 -20 -26 -2 -69 -13 -94 -24 -58 -25 -63 -25 -63 4 0 38 10 56 34 57 13 0
16 2 6 6 -8 2 -25 9 -38 15 -18 10 -26 8 -43 -10 -24 -27 -25 -27 -51 -2 -17
16 -19 22 -8 35 11 13 9 15 -11 16 -17 1 -19 3 -6 6 9 2 17 13 17 24 0 16 5
18 28 14 26 -5 26 -5 5 6 -31 16 -29 29 5 29 27 0 70 -20 45 -20 -7 0 -13 -4
-13 -9 0 -4 21 -3 47 3 l47 10 -37 9 c-42 10 -51 27 -10 19 22 -4 25 -2 19 13
-4 11 -1 22 6 27 9 5 5 8 -11 8 -16 0 -22 -4 -17 -15 7 -18 -20 -21 -28 -2 -3
6 -4 3 -3 -8 2 -17 -4 -20 -48 -21 -27 -1 -53 3 -56 9 -4 5 -12 6 -18 2 -9 -5
-9 -10 0 -21 8 -10 8 -14 0 -14 -6 0 -11 -9 -11 -19 0 -23 -4 -26 -44 -35 -28
-7 -29 -6 -22 25 5 28 4 31 -14 26 -11 -3 -20 -1 -20 5 0 5 -6 8 -12 5 -7 -2
-12 -10 -11 -16 2 -7 -10 -10 -32 -8 -37 2 -42 6 -24 24 9 9 3 14 -22 21 -19
5 -36 5 -37 0 -2 -4 -12 -13 -23 -19 -23 -12 -59 14 -37 27 6 4 14 2 16 -4 2
-7 8 -10 13 -6 16 10 10 24 -11 24 -11 0 -20 4 -20 9 0 5 26 1 58 -9 34 -11
61 -15 66 -9 6 5 33 9 62 9 37 0 54 4 58 15 6 18 -3 19 -39 5 -40 -15 -73 -4
-68 24 4 20 1 23 -26 22 -17 -1 -31 -4 -31 -7 0 -3 -13 -6 -30 -5 -16 1 -30 4
-30 7 0 4 -15 5 -32 4 -20 -2 -32 -8 -30 -15 2 -7 -3 -10 -12 -7 -8 3 -31 9
-51 13 -25 4 -33 9 -24 15 10 6 7 8 -8 6 -12 0 -20 -4 -17 -8 2 -4 -3 -12 -11
-19 -8 -7 -12 -16 -9 -21 9 -15 -24 -10 -40 6 -15 16 -61 12 -72 -6 -8 -14
-24 -11 -24 5 0 8 -8 17 -17 19 -10 3 8 5 40 6 31 0 57 5 57 9 0 5 -27 6 -59
4 -72 -5 -96 1 -61 16 22 9 22 11 5 12 -15 0 -17 2 -6 9 7 5 17 27 21 49 7 43
0 52 -38 52 -14 -1 -13 -3 3 -12 11 -6 21 -12 23 -13 1 -1 0 -9 -3 -16 -8 -21
-107 -18 -129 4 -23 23 -29 21 -23 -5 7 -26 -7 -47 -31 -43 -9 1 -11 0 -4 -2
6 -3 12 -9 12 -14 0 -10 -81 -6 -98 5 -8 5 -27 -23 -20 -29 2 -1 12 -7 23 -14
17 -10 15 -11 -15 -6 -19 4 -53 12 -75 18 -22 6 -48 9 -57 8 -10 -1 -18 2 -18
7 0 6 -9 8 -20 5 -11 -3 -20 -9 -20 -14 0 -5 -7 -9 -15 -9 -23 0 -6 30 19 31
24 1 -147 47 -181 48 -19 1 -20 4 -10 26 7 14 18 23 25 20 14 -5 89 62 84 76
-1 5 4 9 12 9 20 0 68 61 100 127 15 30 37 100 48 154 17 83 19 104 8 123 -9
18 -9 28 0 46 6 12 14 56 17 98 5 66 3 75 -8 59 -12 -15 -14 -12 -14 33 0 35
4 49 12 46 13 -6 29 54 20 76 -3 7 -6 -1 -6 -19 -1 -17 -6 -35 -12 -39 -8 -5
-9 6 -4 37 4 24 10 49 13 54 11 18 12 45 2 45 -6 0 -10 -9 -10 -20 0 -11 -5
-20 -11 -20 -5 0 -8 -4 -5 -9 3 -5 -1 -28 -9 -52 -9 -24 -14 -48 -11 -54 2 -7
0 -18 -4 -26 -6 -8 -4 -16 3 -21 8 -5 6 -8 -5 -8 -10 0 -18 -4 -18 -10 0 -5 5
-10 10 -10 6 0 8 -11 4 -27 -7 -26 -6 -27 11 -13 17 14 18 13 12 -2 -4 -12 -2
-18 8 -18 12 0 12 -5 -2 -35 -9 -19 -20 -35 -25 -35 -4 0 -8 -7 -8 -15 0 -8
-5 -15 -10 -15 -6 0 -8 -10 -5 -23 4 -12 1 -36 -6 -52 -7 -17 -13 -35 -14 -41
-2 -6 -11 -24 -21 -38 -13 -21 -23 -26 -40 -22 -20 5 -25 1 -35 -34 -7 -22
-16 -40 -21 -40 -4 0 -8 -4 -8 -10 0 -5 7 -7 15 -4 10 4 7 -8 -11 -40 -14 -25
-30 -46 -35 -46 -4 0 -6 -7 -3 -15 7 -18 -21 -65 -39 -65 -7 0 -13 -10 -14
-21 -2 -16 1 -19 9 -11 11 11 38 5 38 -9 0 -5 -7 -9 -15 -9 -9 0 -12 -6 -9
-15 4 -9 -3 -24 -16 -35 -13 -11 -19 -20 -15 -20 17 0 -12 -21 -34 -25 -23 -4
-23 -4 3 22 31 31 33 43 7 36 -27 -7 -51 -36 -57 -69 -7 -36 -12 -44 -30 -44
-25 0 -15 -19 14 -23 23 -3 22 -4 -8 -5 -39 -2 -69 11 -52 22 6 4 9 13 5 21
-3 9 0 22 7 30 7 9 8 15 2 15 -5 0 -8 10 -5 23 3 13 1 17 -4 11 -4 -6 -18 -16
-30 -23 -13 -7 -20 -17 -17 -26 4 -9 -7 -22 -28 -35 l-33 -21 30 7 c17 4 34
11 39 15 15 13 26 11 20 -4 -6 -17 -76 -57 -99 -57 -12 0 -15 5 -11 17 4 9 1
20 -6 25 -10 6 -10 8 0 8 6 0 12 7 12 15 0 9 -9 15 -25 15 -14 0 -25 -4 -25
-9 0 -5 -8 -12 -17 -14 -17 -4 -17 -5 0 -6 9 0 17 -7 17 -14 0 -7 -27 -18 -67
-27 -47 -10 -68 -20 -68 -30 0 -12 -20 -16 -95 -22 -52 -3 -122 -13 -155 -22
-33 -9 -95 -16 -138 -16 -63 0 -85 -4 -107 -20 -41 -29 -109 -56 -174 -70 -57
-12 -58 -12 -84 -68 -21 -47 -26 -76 -30 -163 -3 -70 0 -120 8 -145 31 -97
149 -230 297 -336 86 -62 238 -156 290 -179 18 -7 33 -18 33 -22 0 -5 -5 -5
-12 -1 -7 4 -8 3 -4 -4 4 -7 20 -12 36 -12 16 0 32 -5 36 -11 4 -8 0 -9 -15
-4 -12 4 -21 2 -21 -4 0 -6 -9 -11 -20 -11 -11 0 -20 -5 -20 -10 0 -6 -12 -8
-27 -5 -26 6 -26 5 -10 -8 16 -13 15 -15 -12 -27 -16 -6 -38 -9 -49 -6 -12 4
-22 1 -25 -7 -3 -8 -26 -18 -51 -21 -34 -5 -44 -11 -39 -22 4 -10 0 -12 -11
-8 -9 3 -16 1 -16 -4 0 -6 -16 -14 -35 -18 -19 -3 -37 -10 -40 -14 -5 -7 39
-3 65 7 8 4 20 5 27 4 7 -1 30 7 52 19 42 21 83 16 94 -12 4 -8 6 -7 6 5 1 9
-3 17 -9 17 -5 0 -10 4 -10 10 0 10 51 25 115 34 38 6 38 5 10 -5 -16 -6 -37
-13 -45 -16 -19 -8 -27 -10 -40 -12 -5 0 -10 -5 -10 -9 0 -5 29 -8 65 -8 37 1
65 -3 65 -9 0 -5 4 -4 9 4 5 8 16 11 25 8 9 -4 16 -3 16 2 0 5 17 8 38 6 20
-1 48 2 62 6 29 9 -138 4 -188 -6 -17 -3 -32 -2 -32 2 0 5 8 9 18 9 9 1 46 7
82 13 102 19 177 23 197 12 15 -9 13 -10 -15 -11 -18 0 -31 -4 -27 -9 10 -17
-27 -29 -151 -52 -65 -12 -121 -25 -124 -29 -9 -11 -62 -11 -55 1 5 6 -9 8
-42 4 -26 -3 -74 -7 -106 -9 -32 -2 -61 -7 -65 -11 -4 -4 37 -5 92 -2 54 3 95
2 90 -2 -5 -4 -45 -16 -89 -25 -75 -17 -256 -91 -263 -108 -2 -5 -13 -8 -23
-8 -11 0 -18 -3 -15 -8 2 -4 -27 -39 -66 -77 -38 -39 -77 -82 -86 -98 -10 -16
-25 -27 -39 -27 -12 0 -25 -5 -29 -11 -4 -8 0 -9 15 -4 27 8 27 -5 -1 -41 -12
-15 -23 -33 -24 -40 -1 -6 -16 -50 -33 -97 -24 -66 -32 -103 -34 -168 -2 -78
0 -84 18 -87 12 -2 57 14 100 34 139 63 274 114 288 108 8 -3 17 2 20 10 8 20
27 21 27 1 0 -20 16 -19 24 0 3 9 11 15 18 14 20 -3 49 12 42 22 -4 8 1 10 21
9 3 -1 13 7 23 16 15 15 17 16 20 2 5 -24 52 -11 52 16 1 20 2 20 14 3 16 -20
45 -22 52 -3 3 8 26 17 52 20 26 4 59 12 74 18 15 5 36 7 45 3 17 -7 16 -8 -2
-15 -18 -7 -18 -9 -3 -15 9 -4 63 3 119 14 56 12 121 21 145 21 23 0 45 4 49
9 3 6 13 10 23 10 28 1 117 9 117 11 0 1 14 4 30 6 27 3 28 2 12 -10 -13 -10
-14 -15 -4 -19 7 -2 21 1 32 9 25 18 35 18 35 -2 0 -11 -5 -14 -16 -10 -8 3
-23 -1 -32 -10 -15 -15 -14 -16 14 -10 16 3 56 8 89 12 33 3 79 10 103 15 24
5 46 8 50 5 4 -2 16 0 27 5 18 7 17 8 -6 8 -14 1 -50 -3 -80 -8 -111 -19 -139
-20 -139 -5 0 8 8 14 18 15 53 3 94 9 129 18 21 5 45 10 53 9 51 -4 79 3 74
17 -4 10 0 15 12 15 16 1 15 3 -6 16 l-25 14 25 -2 c20 -2 24 -8 22 -27 -2
-24 -2 -24 70 -16 40 4 93 8 118 8 l45 0 -37 11 c-20 6 -39 13 -42 17 -8 7 45
2 68 -7 16 -6 18 -4 13 10 -6 15 -3 18 18 14 14 -3 25 -1 25 3 0 5 -4 9 -10 9
-5 0 -10 5 -10 10 0 6 14 10 31 10 16 0 28 -4 24 -9 -8 -15 15 -25 28 -12 14
14 40 15 32 1 -4 -7 3 -8 22 -4 39 9 45 14 39 30 -4 9 2 14 16 14 17 0 18 -2
8 -15 -12 -14 0 -15 111 -10 68 4 149 8 179 10 30 3 102 7 159 10 57 3 107 7
111 10 4 2 15 -4 25 -15 22 -25 40 -25 63 -2 22 21 56 26 48 7 -3 -10 5 -12
35 -8 40 6 74 -10 62 -30 -3 -6 -1 -7 6 -3 6 4 9 12 6 17 -4 5 3 9 14 9 12 0
21 5 21 11 0 6 -6 9 -14 6 -8 -3 -22 1 -33 8 -16 13 -6 14 82 13 82 -1 90 -2
44 -7 -47 -5 -54 -8 -43 -19 8 -7 14 -8 14 -2 0 5 17 9 38 8 21 0 47 4 57 9
16 10 15 11 -13 18 -17 3 -86 8 -152 9 -66 1 -123 6 -127 9 -3 4 1 7 10 7 10
0 17 6 17 14 0 10 18 12 88 8 108 -5 120 -12 22 -12 -113 0 -77 -9 55 -14 75
-3 121 -9 125 -16 6 -9 9 -9 14 -1 5 8 32 9 84 5 42 -3 104 -7 137 -9 120 -5
241 -16 267 -25 14 -5 28 -6 31 -4 8 8 288 8 347 0 79 -11 128 -16 184 -20 45
-4 77 -19 65 -31 -3 -3 -40 1 -83 8 -43 8 -93 13 -112 12 -19 0 -34 2 -34 6 0
3 -12 5 -27 3 -16 -2 -50 3 -78 10 -29 7 -71 10 -100 6 l-50 -6 68 -8 c37 -4
67 -11 67 -14 0 -4 -30 -8 -68 -9 -46 -1 -61 2 -47 8 13 5 3 6 -30 3 -27 -3
-64 -5 -81 -5 -17 1 -42 -2 -54 -7 -32 -12 94 -23 199 -17 46 2 68 1 56 -4
-14 -6 -4 -8 30 -6 28 1 87 -1 132 -4 63 -5 84 -3 88 7 4 10 10 10 25 2 11 -6
25 -8 31 -5 18 12 61 -4 55 -20 -3 -8 -1 -15 3 -15 5 0 11 6 14 14 4 11 14 12
44 6 21 -5 72 -11 113 -14 41 -3 83 -8 93 -11 9 -4 17 -3 17 3 0 5 -50 17
-112 27 -61 9 -118 19 -125 22 -19 8 -16 20 7 26 14 3 20 0 20 -10 0 -10 6
-14 20 -10 11 3 22 2 25 -3 3 -4 35 -11 72 -15 38 -4 95 -13 128 -20 33 -8
111 -20 173 -26 61 -7 112 -16 112 -21 0 -4 7 -8 16 -8 8 0 12 5 9 10 -8 13 1
13 45 0 23 -7 38 -6 45 1 7 7 5 9 -5 5 -14 -6 -49 9 -40 17 3 2 29 1 58 -1 34
-3 52 -8 49 -15 -3 -7 -10 -11 -17 -9 -15 3 -31 -18 -24 -30 3 -4 15 -3 28 2
18 7 23 5 22 -6 -1 -12 17 -16 89 -21 141 -8 175 -14 175 -35 0 -5 6 -8 14 -5
7 3 26 -2 42 -10 16 -8 43 -19 59 -24 62 -16 152 -54 153 -64 1 -13 22 -19 22
-7 0 11 66 -3 85 -18 11 -8 168 -46 233 -56 23 -4 42 -10 42 -15 0 -5 6 -6 13
-4 6 3 54 1 105 -3 84 -7 92 -6 92 10 0 13 8 18 28 19 23 2 24 2 5 6 -17 3
-23 11 -23 31 0 15 -9 47 -20 71 -11 24 -20 46 -20 48 0 3 14 3 32 -1 21 -4
29 -3 23 3 -6 6 -25 11 -43 13 -29 2 -37 9 -33 31 0 4 -3 7 -7 7 -5 0 -14 11
-20 24 -9 20 -7 25 13 36 13 7 29 9 36 5 8 -6 10 -4 4 5 -5 8 -22 11 -50 8
-39 -5 -44 -3 -60 24 -68 116 -290 288 -487 378 -43 19 -77 41 -78 49 0 8 -6
11 -16 7 -26 -10 -299 118 -288 136 4 6 3 8 -4 4 -6 -3 -28 3 -49 15 -72 41
-168 89 -180 89 -6 0 -14 4 -18 9 -7 12 74 61 99 61 9 0 15 4 11 10 -3 5 7 16
23 24 46 24 300 213 407 303 55 47 138 123 185 169 128 126 131 129 118 142
-9 9 -8 12 5 12 9 0 17 5 17 10 0 6 -7 10 -15 10 -8 0 -15 5 -15 11 0 6 7 9
15 5 10 -3 15 1 15 13 0 18 -26 33 -62 35 -30 2 -19 21 12 21 44 0 41 19 -2
23 -40 3 -46 10 -26 30 17 17 -4 15 -28 -3 -23 -17 -69 -20 -58 -3 5 8 -2 9
-24 5 -18 -4 -32 -2 -32 3 0 5 -10 6 -22 3 -41 -10 -66 -6 -89 16 -21 19 -46
20 -34 1 3 -5 -8 -8 -25 -8 -16 1 -30 5 -30 10 0 5 4 7 9 4 5 -3 14 1 21 8 9
12 4 19 -27 39 -32 21 -54 26 -133 30 -69 3 -116 12 -170 31 -41 15 -100 30
-130 32 -34 3 -60 12 -67 22 -12 14 -13 14 -13 -1 0 -18 -11 -20 -48 -11 -17
5 -21 11 -16 26 5 17 3 19 -15 13 -12 -4 -21 -2 -21 4 0 6 -5 11 -11 11 -6 0
-8 -9 -4 -22 9 -36 -52 38 -75 90 -10 23 -23 42 -27 42 -8 0 -22 28 -62 123
-11 26 -27 54 -36 63 -8 8 -15 24 -15 33 0 10 -7 24 -16 32 -12 10 -14 26 -11
66 2 29 1 53 -3 53 -4 0 -11 12 -14 26 -4 15 -10 24 -13 21 -3 -3 0 -20 5 -37
7 -18 7 -28 2 -25 -6 4 -10 13 -10 21 0 8 -6 14 -13 14 -13 0 -52 110 -50 141
1 11 -2 17 -8 14 -5 -4 -9 -1 -9 4 0 6 7 11 15 11 9 0 12 6 8 17 -4 11 -3 14
5 9 19 -12 14 36 -8 80 -18 37 -27 31 -21 -13 1 -7 -5 -13 -13 -13 -10 0 -13
-6 -9 -17 5 -17 5 -17 -12 -1 -23 21 -30 72 -9 64 8 -3 14 -1 14 4 0 5 -9 12
-20 15 -11 3 -20 11 -20 17 0 5 7 7 16 4 13 -5 14 -3 7 6 -6 7 -10 20 -10 28
0 8 -3 26 -7 40 -6 23 -6 24 7 7 13 -16 14 -13 12 29 -2 26 -7 49 -13 53 -5 3
-8 21 -7 39 1 17 -1 32 -5 32 -4 0 -10 9 -13 20 -3 11 -10 20 -17 20 -7 0 -9
-8 -3 -22 4 -13 8 -43 8 -68 0 -41 -2 -45 -25 -48 -14 -2 -20 1 -15 5 17 13
17 43 0 69 -10 15 -11 24 -4 24 7 0 8 5 3 13 -5 6 -9 19 -8 27 1 8 3 26 4 40
l2 25 12 -28 c13 -29 26 -27 26 5 0 10 -9 23 -19 30 -14 8 -17 17 -11 27 4 9
10 33 13 54 4 27 1 37 -9 37 -8 0 -14 5 -14 11 0 5 6 7 13 3 8 -5 8 -2 -2 9
-26 32 -34 19 -28 -45 3 -35 3 -53 0 -40 -2 13 -11 26 -19 29 -9 3 -14 21 -15
47 -1 32 -2 36 -8 17 -4 -14 -12 -26 -19 -29 -15 -5 -16 53 -1 96 15 44 7 59
-11 20z m20 -139 c-11 -8 -12 -12 -2 -16 6 -2 12 -10 12 -16 0 -6 -7 -4 -16 5
-17 17 -12 38 9 38 7 0 6 -4 -3 -11z m60 -333 c0 -3 -4 -8 -10 -11 -5 -3 -10
-1 -10 4 0 6 5 11 10 11 6 0 10 -2 10 -4z m110 -311 c14 -48 16 -65 6 -55 -17
20 -46 95 -46 122 0 38 19 6 40 -67z m-25 -26 c0 -14 -18 -39 -29 -39 -3 0 -4
10 -2 23 3 12 5 26 5 30 2 15 26 1 26 -14z m93 -100 c-10 -6 0 -60 12 -69 4
-3 11 -25 15 -50 7 -40 6 -43 -9 -31 -9 7 -16 21 -16 30 0 9 -6 28 -14 42 -7
14 -16 43 -19 65 -4 21 -4 33 -1 27 9 -21 24 -15 25 10 0 21 1 21 8 2 5 -11 4
-23 -1 -26z m-2848 -64 c0 -11 -10 -15 -32 -14 -24 1 -27 3 -10 6 12 2 20 9
17 14 -4 5 1 9 9 9 9 0 16 -7 16 -15z m-26 -58 c-3 -12 -15 -30 -25 -40 -11
-10 -20 -24 -20 -32 -3 -31 -4 -35 -11 -35 -31 0 -33 1 -22 8 11 7 39 77 39
100 0 15 26 33 37 25 5 -2 6 -14 2 -26z m12 -54 c-11 -11 -17 4 -9 23 7 18 8
18 11 1 2 -10 1 -21 -2 -24z m2951 -69 c0 -15 5 -29 10 -33 17 -11 23 -41 9
-41 -7 0 -18 17 -25 38 -7 20 -15 43 -17 50 -3 6 0 12 8 12 7 0 14 -12 15 -26z
m-2977 1 c0 -8 -7 -15 -15 -15 -9 0 -12 6 -9 15 4 8 10 15 15 15 5 0 9 -7 9
-15z m3086 -145 c14 -21 24 -45 22 -52 -4 -11 -58 69 -58 85 0 15 11 5 36 -33z
m-11 -48 c-3 -3 -11 0 -18 7 -9 10 -8 11 6 5 10 -3 15 -9 12 -12z m15 -34 c0
-12 -1 -19 -3 -17 -1 2 -9 12 -16 22 -12 14 -11 17 3 17 10 0 16 -8 16 -22z
m-3310 4 c0 -13 -12 -22 -22 -16 -10 6 -1 24 13 24 5 0 9 -4 9 -8z m676 -13
c7 -11 -12 -29 -31 -29 -5 0 -21 9 -35 20 l-25 20 42 0 c23 0 45 -5 49 -11z
m-526 -3 c0 -2 -7 -9 -15 -16 -12 -10 -15 -10 -15 4 0 9 7 16 15 16 8 0 15 -2
15 -4z m47 -12 c-3 -3 -12 -4 -19 -1 -8 3 -5 6 6 6 11 1 17 -2 13 -5z m3188
-25 c11 -17 -1 -21 -15 -4 -8 9 -8 15 -2 15 6 0 14 -5 17 -11z m-2845 -9 c-1
-32 -52 -39 -58 -8 -3 14 3 17 27 15 17 -1 31 -4 31 -7z m133 -10 c-14 -14
-73 -22 -73 -11 0 6 11 11 24 11 14 0 28 5 31 10 4 6 11 7 17 4 5 -3 6 -10 1
-14z m-543 -5 c46 -3 46 -3 33 -16 -8 -8 -30 -8 -83 2 -80 14 -109 34 -33 23
26 -4 64 -8 83 -9z m-380 -3 c0 -10 -68 -31 -76 -23 -3 3 11 11 33 18 21 6 39
12 41 12 1 1 2 -2 2 -7z m575 -1 c-7 -13 6 -20 51 -26 21 -2 41 -10 46 -17 5
-9 8 -9 8 -2 0 14 38 25 45 13 3 -4 0 -17 -6 -27 -10 -16 -18 -18 -46 -12 -18
4 -33 4 -33 0 0 -8 111 -39 215 -60 164 -32 260 -64 259 -84 -2 -19 12 -22 19
-3 4 8 6 7 6 -3 1 -10 24 -22 66 -34 36 -10 68 -23 72 -29 7 -12 -28 -6 -112
18 -85 25 -135 34 -135 24 0 -7 51 -23 75 -24 6 0 12 -2 15 -5 4 -5 49 -16
149 -36 13 -3 66 -18 118 -35 69 -22 93 -34 89 -44 -3 -8 -1 -17 4 -20 6 -4
10 -2 10 3 0 5 25 -3 55 -17 30 -14 53 -27 50 -29 -2 -2 -32 5 -67 16 -35 11
-77 23 -95 27 -18 3 -39 17 -49 32 -16 25 -18 25 -30 9 -7 -10 -18 -15 -24
-11 -8 5 -7 11 2 23 9 12 6 11 -10 -2 -20 -17 -27 -15 -23 7 1 4 -8 3 -19 -3
-16 -9 -20 -8 -20 5 0 13 -3 13 -21 3 -17 -10 -23 -10 -26 0 -3 6 -10 12 -17
12 -8 0 -25 9 -38 20 -14 10 -28 16 -32 13 -15 -15 -59 -11 -79 8 -12 11 -27
17 -34 15 -7 -3 -13 -2 -13 3 0 4 -15 8 -32 9 -18 0 -34 5 -36 10 -1 4 -17 6
-34 4 -20 -3 -35 0 -42 10 -13 18 -56 30 -56 16 0 -6 -6 -5 -15 2 -8 7 -30 16
-48 20 -17 4 -31 12 -29 18 1 7 -2 12 -8 12 -5 0 -10 -6 -10 -14 0 -13 -4 -13
-27 0 -16 7 -37 14 -48 14 -11 0 -29 7 -40 16 -17 13 -18 16 -5 24 10 6 17 5
22 -5 9 -14 44 -15 67 0 9 5 18 3 25 -7 6 -8 17 -13 24 -11 7 3 13 -5 13 -19
l2 -23 4 23 c2 12 9 22 15 22 5 0 8 -7 4 -15 -3 -8 -4 -15 -3 -15 1 0 17 -4
35 -9 37 -11 45 4 10 19 -35 13 -1 11 77 -5 82 -17 88 -18 81 -6 -3 4 -42 17
-86 27 -44 10 -80 21 -80 26 0 4 -6 5 -13 2 -7 -2 -49 2 -92 11 -44 8 -92 15
-107 15 -15 0 -30 5 -34 11 -4 7 9 10 40 8 48 -3 62 3 51 21 -5 8 -11 8 -22
-1 -12 -11 -14 -10 -11 3 1 9 0 17 -4 17 -23 2 -28 0 -28 -15 0 -11 -5 -14
-17 -10 -9 4 -32 9 -52 12 -19 3 -44 12 -54 19 -17 12 -14 14 27 23 25 5 57 7
71 5 15 -3 25 -1 25 6 0 6 5 11 11 11 5 0 8 -4 4 -9z m42 -7 c-3 -3 -12 -4
-19 -1 -8 3 -5 6 6 6 11 1 17 -2 13 -5z m818 -23 c-3 -6 -11 -8 -17 -5 -6 4
-5 9 3 15 16 10 23 4 14 -10z m-1020 -11 c4 -6 -7 -10 -27 -9 -31 1 -32 1 -8
9 14 4 26 8 27 9 1 1 5 -3 8 -9z m433 -35 c4 -4 -6 -5 -22 -1 -27 7 -28 6 -15
-10 13 -16 12 -17 -11 -11 -14 4 -32 7 -41 7 -23 0 -31 38 -11 49 14 8 82 -14
100 -34z m428 33 c5 -8 2 -9 -10 -5 -14 5 -17 3 -12 -8 4 -11 -1 -15 -18 -15
-31 0 -39 11 -18 26 21 17 49 18 58 2z m-146 -12 c0 -11 -19 -15 -25 -6 -3 5
1 10 9 10 9 0 16 -2 16 -4z m1860 -12 c0 -2 -7 -4 -15 -4 -8 0 -15 4 -15 10 0
5 7 7 15 4 8 -4 15 -8 15 -10z m-2600 -20 c0 -2 -9 -4 -20 -4 -11 0 -20 4 -20
9 0 5 9 7 20 4 11 -3 20 -7 20 -9z m129 -10 c2 -2 -19 -4 -47 -4 -29 0 -52 4
-52 9 0 8 90 4 99 -5z m341 -4 c13 -8 13 -10 -2 -10 -9 0 -20 5 -23 10 -8 13
5 13 25 0z m-505 -22 c6 -6 -4 -7 -30 -2 -64 11 -86 25 -30 18 28 -4 55 -11
60 -16z m545 12 c0 -5 -4 -10 -10 -10 -5 0 -10 5 -10 10 0 6 5 10 10 10 6 0
10 -4 10 -10z m357 4 c-3 -3 -12 -4 -19 -1 -8 3 -5 6 6 6 11 1 17 -2 13 -5z
m-307 -14 c12 -8 11 -10 -7 -10 -12 0 -25 5 -28 10 -8 13 15 13 35 0z m-440
-4 c0 -11 -19 -15 -25 -6 -3 5 1 10 9 10 9 0 16 -2 16 -4z m40 -16 c0 -5 -7
-7 -15 -4 -8 4 -12 10 -9 15 6 11 24 2 24 -11z m800 10 c9 -6 10 -10 3 -10 -6
0 -18 -2 -26 -5 -8 -4 -14 0 -14 10 0 17 15 19 37 5z m2880 0 c-8 -5 -24 -9
-35 -9 -16 1 -16 2 5 9 35 11 48 11 30 0z m-3871 -26 c2 -2 -7 -4 -22 -4 -14
0 -29 5 -32 10 -6 10 42 4 54 -6z m1861 -23 c0 -5 -10 -11 -22 -14 -13 -2 -31
-8 -40 -12 -11 -4 -18 -3 -18 4 0 7 15 18 32 26 32 13 48 12 48 -4z m-840 5
c0 -2 -7 -7 -16 -10 -8 -3 -12 -2 -9 4 6 10 25 14 25 6z m65 -5 c-3 -5 4 -11
15 -13 13 -2 17 -7 11 -16 -11 -18 -41 -4 -41 19 0 10 5 19 11 19 5 0 8 -4 4
-9z m169 -15 c-3 -9 2 -16 13 -19 10 -2 6 -3 -9 -2 -16 1 -28 -2 -28 -7 0 -4
-7 -8 -15 -8 -9 0 -12 -6 -9 -15 7 -18 -7 -20 -23 -4 -13 13 -6 39 9 39 5 0
16 7 24 15 20 19 45 20 38 1z m2686 4 c0 -5 -4 -10 -10 -10 -5 0 -10 5 -10 10
0 6 5 10 10 10 6 0 10 -4 10 -10z m-3805 -10 c8 -13 -15 -13 -35 0 -12 8 -11
10 7 10 12 0 25 -4 28 -10z m840 0 c13 -6 15 -9 5 -9 -8 0 -22 4 -30 9 -18 12
-2 12 25 0z m-775 -10 c0 -5 -9 -10 -19 -10 -11 0 -23 5 -26 10 -4 6 5 10 19
10 14 0 26 -4 26 -10z m1567 4 c-3 -3 -12 -4 -19 -1 -8 3 -5 6 6 6 11 1 17 -2
13 -5z m2108 -4 c3 -5 -1 -10 -10 -10 -9 0 -13 5 -10 10 3 6 8 10 10 10 2 0 7
-4 10 -10z m-3595 -10 c0 -5 -4 -10 -10 -10 -5 0 -10 5 -10 10 0 6 5 10 10 10
6 0 10 -4 10 -10z m1560 -3 c0 -14 -60 -40 -69 -31 -8 8 38 44 55 44 8 0 14
-6 14 -13z m2095 3 c3 -5 1 -10 -4 -10 -6 0 -11 5 -11 10 0 6 2 10 4 10 3 0 8
-4 11 -10z m-3585 -10 c0 -11 -24 -30 -39 -30 -8 0 -11 3 -8 7 4 3 2 12 -4 19
-9 11 -4 13 20 11 17 -1 31 -4 31 -7z m3847 -6 c-3 -3 -12 -4 -19 -1 -8 3 -5
6 6 6 11 1 17 -2 13 -5z m-3226 -14 c5 0 9 -4 9 -10 0 -14 -13 -12 -36 6 -17
14 -17 15 -1 10 10 -3 23 -6 28 -6z m914 0 c3 -5 -1 -10 -10 -10 -9 0 -13 5
-10 10 3 6 8 10 10 10 2 0 7 -4 10 -10z m110 0 c-3 -5 -11 -10 -16 -10 -6 0
-7 5 -4 10 3 6 11 10 16 10 6 0 7 -4 4 -10z m2270 1 c-15 -14 -55 -23 -55 -13
0 15 12 22 39 22 15 0 21 -4 16 -9z m-3808 -7 c-3 -3 -12 -4 -19 -1 -8 3 -5 6
6 6 11 1 17 -2 13 -5z m1823 2 c0 -2 -7 -7 -16 -10 -8 -3 -12 -2 -9 4 6 10 25
14 25 6z m-556 -18 c-2 -7 -32 -22 -66 -34 -50 -16 -64 -25 -68 -45 -3 -13
-11 -24 -18 -23 -7 1 -21 2 -32 3 -27 1 -23 33 5 43 19 6 18 6 -2 7 -13 1 -23
6 -23 11 0 6 13 8 30 5 23 -4 28 -2 24 10 -4 8 -1 15 5 15 6 0 10 -5 9 -12 -5
-22 27 -19 72 6 50 28 72 32 64 14z m90 -13 c-17 -8 -44 -17 -60 -20 -24 -5
-26 -4 -8 4 12 5 25 14 29 20 3 6 21 11 38 10 l32 -1 -31 -13z m-1314 -10 l55
-15 -53 4 c-29 2 -58 8 -65 15 -14 14 -5 14 63 -4z m700 -6 c0 -6 -4 -7 -10
-4 -5 3 -10 11 -10 16 0 6 5 7 10 4 6 -3 10 -11 10 -16z m30 0 c0 -6 -4 -7
-10 -4 -5 3 -10 11 -10 16 0 6 5 7 10 4 6 -3 10 -11 10 -16z m132 6 c1 -13
-70 -47 -85 -41 -7 2 3 10 21 17 17 8 32 19 32 27 0 15 31 12 32 -3z m593 -8
c-6 -14 -34 -27 -63 -27 -21 0 -3 19 31 34 37 15 40 15 32 -7z m240 15 c-18
-15 -63 -31 -69 -24 -4 3 6 11 21 18 32 14 62 18 48 6z m-2085 -22 c0 -5 -4
-10 -10 -10 -5 0 -10 5 -10 10 0 6 5 10 10 10 6 0 10 -4 10 -10z m1595 -10
c-10 -11 -22 -17 -27 -13 -6 3 -14 -1 -20 -8 -7 -11 -8 -9 -6 6 2 10 14 22 28
26 41 11 44 10 25 -11z m-1541 -1 c3 -3 -4 -5 -14 -6 -11 -1 -22 2 -25 8 -6 9
30 7 39 -2z m241 1 c3 -5 2 -10 -4 -10 -5 0 -13 5 -16 10 -3 6 -2 10 4 10 5 0
13 -4 16 -10z m227 -4 c28 -3 34 -16 7 -16 -13 1 -37 7 -54 16 l-30 14 30 -6
c17 -4 38 -8 47 -8z m1438 -10 c0 -8 -15 -20 -32 -27 -18 -7 -36 -14 -41 -17
-4 -2 -4 4 -1 13 4 10 21 23 38 31 39 17 36 17 36 0z m-243 -12 c-3 -3 -12 -4
-19 -1 -8 3 -5 6 6 6 11 1 17 -2 13 -5z m-1612 -14 c19 -8 19 -9 -2 -9 -12 -1
-25 4 -28 9 -7 12 2 12 30 0z m553 -5 c2 -1 -8 -5 -21 -7 -13 -2 -29 1 -35 9
-10 10 -6 11 20 6 18 -3 34 -7 36 -8z m-488 -11 c0 -2 -7 -4 -15 -4 -8 0 -15
4 -15 10 0 5 7 7 15 4 8 -4 15 -8 15 -10z m110 -14 c11 -7 7 -10 -17 -10 -17
0 -35 5 -38 10 -8 13 35 13 55 0z m450 6 c0 -3 -4 -8 -10 -11 -5 -3 -10 -1
-10 4 0 6 5 11 10 11 6 0 10 -2 10 -4z m705 -15 c-3 -6 -14 -11 -23 -11 -15 1
-15 2 2 15 21 16 32 13 21 -4z m395 4 c0 -2 -13 -11 -30 -20 -16 -9 -30 -12
-30 -7 0 5 10 14 23 20 25 12 37 14 37 7z m-1475 -15 c4 -7 -3 -8 -22 -4 -38
9 -42 14 -10 14 14 0 29 -5 32 -10z m485 0 c0 -5 -5 -10 -11 -10 -5 0 -7 5 -4
10 3 6 8 10 11 10 2 0 4 -4 4 -10z m-450 -10 c0 -5 -2 -10 -4 -10 -3 0 -8 5
-11 10 -3 6 -1 10 4 10 6 0 11 -4 11 -10z m405 0 c3 -5 1 -10 -4 -10 -6 0 -11
5 -11 10 0 6 2 10 4 10 3 0 8 -4 11 -10z m670 0 c-3 -5 -10 -10 -16 -10 -5 0
-9 5 -9 10 0 6 7 10 16 10 8 0 12 -4 9 -10z m-935 -30 c0 -5 -4 -10 -10 -10
-5 0 -10 5 -10 10 0 6 5 10 10 10 6 0 10 -4 10 -10z m1050 0 c0 -5 -7 -10 -15
-10 -8 0 -15 5 -15 10 0 6 7 10 15 10 8 0 15 -4 15 -10z m-680 -10 c0 -5 -2
-10 -4 -10 -3 0 -8 5 -11 10 -3 6 -1 10 4 10 6 0 11 -4 11 -10z m-415 -10 l20
-9 -20 0 c-11 0 -29 4 -40 9 l-20 9 20 0 c11 0 29 -4 40 -9z m552 4 c-3 -3
-12 -4 -19 -1 -8 3 -5 6 6 6 11 1 17 -2 13 -5z m-427 -35 c10 -6 1 -7 -25 -3
-22 4 -44 11 -50 16 -12 12 52 0 75 -13z m540 -9 c0 -5 -5 -10 -11 -10 -5 0
-7 5 -4 10 3 6 8 10 11 10 2 0 4 -4 4 -10z m74 -9 c3 -5 -10 -9 -29 -9 -19 0
-32 4 -29 9 3 5 16 9 29 9 13 0 26 -4 29 -9z m751 -176 c732 -349 890 -429
881 -443 -2 -4 -122 51 -265 121 -203 100 -264 127 -275 118 -14 -12 -46 -5
-46 10 0 5 -7 9 -15 9 -9 0 -18 7 -21 15 -4 8 -10 13 -14 10 -4 -2 -27 5 -51
17 -24 12 -51 21 -59 20 -12 -2 -12 0 2 11 15 12 11 16 -37 40 l-54 26 9 -24
c6 -16 6 -25 0 -25 -5 0 -7 -7 -3 -15 4 -13 -3 -12 -36 6 -22 11 -41 25 -41
29 0 5 12 3 27 -5 28 -15 52 -10 35 7 -6 6 -8 17 -5 24 6 16 -13 19 -22 4 -3
-5 -11 -10 -17 -10 -6 0 -5 7 3 17 13 15 12 15 -9 4 -26 -14 -45 -6 -22 9 11
7 8 12 -15 22 -22 10 -29 10 -33 0 -6 -18 -20 -15 -18 5 0 11 -14 25 -39 38
-63 33 -78 38 -71 20 6 -18 -2 -45 -15 -45 -4 0 -6 7 -3 15 4 9 0 15 -10 15
-9 0 -16 5 -16 10 0 6 -6 10 -13 10 -7 0 -30 9 -51 19 l-38 20 6 -25 c7 -28
-1 -31 -21 -6 -14 16 -14 16 -9 0 6 -20 5 -21 -19 -12 -10 4 -12 9 -7 13 6 3
0 11 -14 18 -13 6 -22 7 -18 2 3 -5 -1 -9 -9 -9 -17 0 -96 39 -80 40 6 0 19 3
29 7 13 5 15 3 9 -7 -5 -8 -3 -11 6 -8 8 3 13 10 12 16 -4 18 36 35 52 22 18
-15 75 -31 75 -20 0 4 -17 15 -37 24 l-38 16 40 -7 c22 -3 193 -79 380 -168z
m-700 155 c3 -5 -1 -10 -9 -10 -8 0 -18 5 -21 10 -3 6 1 10 9 10 8 0 18 -4 21
-10z m-455 -10 c0 -5 -4 -10 -10 -10 -5 0 -10 5 -10 10 0 6 5 10 10 10 6 0 10
-4 10 -10z m95 -30 c3 -5 2 -10 -4 -10 -5 0 -13 5 -16 10 -3 6 -2 10 4 10 5 0
13 -4 16 -10z m521 -29 c34 -17 67 -31 74 -31 8 0 11 -3 8 -6 -8 -7 -208 55
-208 65 0 17 70 1 126 -28z m219 -21 c3 -5 1 -10 -4 -10 -6 0 -11 5 -11 10 0
6 2 10 4 10 3 0 8 -4 11 -10z m159 -49 c-6 -6 -34 20 -34 32 0 6 8 2 19 -9 10
-10 17 -21 15 -23z m-253 9 c21 -12 27 -45 7 -37 -7 2 -12 10 -10 16 1 6 -5
11 -13 11 -8 0 -15 5 -15 10 0 13 6 13 31 0z m299 -22 c0 -13 -23 -5 -28 10
-2 7 2 10 12 6 9 -3 16 -11 16 -16z m-20 -18 c8 -5 12 -11 10 -14 -3 -2 -14 2
-24 10 -22 15 -10 19 14 4z m-75 -10 c3 -5 1 -10 -4 -10 -6 0 -11 5 -11 10 0
6 2 10 4 10 3 0 8 -4 11 -10z m155 6 c0 -3 -4 -8 -10 -11 -5 -3 -10 -1 -10 4
0 6 5 11 10 11 6 0 10 -2 10 -4z m-236 -21 c15 -8 38 -17 50 -19 11 -2 35 -11
51 -20 17 -9 37 -16 46 -16 23 0 53 -25 45 -38 -4 -7 -23 -3 -59 13 -124 55
-187 85 -187 90 0 10 25 5 54 -10z m236 -15 c0 -5 -4 -10 -9 -10 -6 0 -13 5
-16 10 -3 6 1 10 9 10 9 0 16 -4 16 -10z m-556 -9 c4 -5 -3 -7 -14 -4 -23 6
-26 13 -6 13 8 0 17 -4 20 -9z m554 -31 c7 0 21 -4 32 -10 11 -5 29 -14 40
-20 11 -5 26 -10 35 -10 11 0 13 -7 9 -30 -4 -19 -2 -30 5 -30 6 0 11 10 11
22 0 28 12 16 14 -14 0 -13 6 -23 11 -23 11 -1 54 -24 44 -25 -12 0 -116 33
-139 45 -14 7 -40 19 -57 25 -18 7 -33 19 -33 26 0 19 19 17 55 -4 44 -26 64
-32 70 -21 4 5 -28 25 -69 45 -42 19 -76 40 -76 46 0 6 8 4 18 -5 10 -10 24
-17 30 -17z m242 -76 c0 -2 -7 -4 -15 -4 -8 0 -15 4 -15 10 0 5 7 7 15 4 8 -4
15 -8 15 -10z m65 -24 c-3 -5 -11 -10 -16 -10 -6 0 -7 5 -4 10 3 6 11 10 16
10 6 0 7 -4 4 -10z m125 -36 c0 -2 -7 -4 -15 -4 -8 0 -15 4 -15 10 0 5 7 7 15
4 8 -4 15 -8 15 -10z m-179 -14 c5 0 9 -4 9 -10 0 -14 -13 -12 -36 6 -17 14
-17 15 -1 10 10 -3 23 -6 28 -6z m109 -42 c0 -13 -23 -5 -28 10 -2 7 2 10 12
6 9 -3 16 -11 16 -16z m175 -58 c3 -5 1 -10 -4 -10 -6 0 -11 5 -11 10 0 6 2
10 4 10 3 0 8 -4 11 -10z m85 -40 c0 -5 -5 -10 -11 -10 -5 0 -7 5 -4 10 3 6 8
10 11 10 2 0 4 -4 4 -10z m-55 -20 c23 -11 32 -19 22 -19 -18 -1 -77 25 -77
34 0 8 13 4 55 -15z m96 5 c-1 -15 -24 -12 -29 3 -3 9 2 13 12 10 10 -1 17 -7
17 -13z m44 -15 c3 -5 -1 -10 -9 -10 -9 0 -16 5 -16 10 0 6 4 10 9 10 6 0 13
-4 16 -10z m-74 -23 c-1 -12 -15 -9 -19 4 -3 6 1 10 8 8 6 -3 11 -8 11 -12z
m-3214 -8 c13 -13 6 -39 -9 -39 -6 0 -7 7 -4 16 5 13 1 15 -18 10 -14 -3 -27
-2 -31 3 -3 5 5 12 17 14 13 2 25 5 29 6 3 0 10 -4 16 -10z m3373 -15 c44 -23
55 -25 91 -16 29 7 53 6 92 -4 54 -15 78 -13 162 13 50 15 52 15 159 -21 277
-93 623 -317 718 -465 29 -47 36 -97 18 -132 -27 -49 -141 -75 -240 -55 -27 6
-32 5 -20 -4 12 -9 8 -10 -20 -6 -19 4 -38 13 -43 21 -9 17 -47 21 -47 5 0 -5
-4 -10 -10 -10 -5 0 -9 4 -7 9 5 20 -46 49 -98 56 -33 4 -54 11 -52 18 1 6
-26 19 -63 29 -36 9 -87 25 -113 34 -36 13 -51 14 -60 5 -8 -8 -5 -11 14 -11
35 0 69 -11 69 -22 0 -5 -9 -6 -20 -3 -39 12 -96 16 -80 5 12 -8 11 -10 -7
-10 -18 0 -21 5 -18 29 4 28 2 30 -63 45 -37 9 -85 18 -107 20 -52 6 -132 29
-172 49 -62 33 -113 128 -113 212 0 52 37 155 56 155 27 0 14 26 -19 38 -34
12 -78 41 -64 42 4 0 30 -12 57 -26z m-2982 -114 c183 -70 691 -172 1212 -245
107 -15 199 -32 205 -36 15 -15 -29 -11 -285 27 -340 49 -716 119 -914 170
-23 5 -28 4 -23 -7 42 -97 58 -147 66 -201 4 -34 7 -68 4 -74 -2 -6 -32 -16
-66 -23 -141 -29 -181 -39 -159 -40 12 -1 32 -11 44 -23 l21 -21 -32 6 c-18 4
-30 3 -26 -2 3 -5 -11 -8 -32 -6 -21 2 -40 0 -43 -5 -3 -5 -52 -16 -110 -25
-58 -8 -125 -20 -150 -25 -25 -6 -76 -14 -115 -20 -38 -6 -87 -14 -107 -19
-21 -5 -38 -5 -38 -1 0 5 26 14 58 20 31 7 71 18 87 25 l30 14 -39 0 c-133 3
-216 91 -187 199 13 47 80 114 141 140 25 11 90 30 145 41 155 34 270 62 312
76 33 12 35 14 18 21 -65 23 -86 35 -80 44 8 12 1 14 63 -10z m1542 -309 c0
-5 -10 -7 -22 -4 -19 5 -21 3 -10 -8 10 -11 16 -11 33 -1 29 19 37 6 12 -19
-17 -18 -24 -19 -43 -9 -12 7 -25 8 -29 4 -3 -5 -33 -9 -66 -8 -33 0 -85 -5
-115 -12 -46 -11 -57 -11 -66 1 -8 10 -29 12 -90 9 -104 -7 -105 -7 -134 -4
-14 1 -77 -1 -140 -5 -63 -4 -113 -5 -110 -2 6 6 192 25 312 32 46 3 92 8 103
11 16 4 17 3 5 -5 -12 -9 -11 -11 8 -11 13 0 20 4 17 10 -3 6 4 10 17 10 18 0
20 -2 8 -10 -23 -15 12 -13 46 2 22 10 28 10 32 0 3 -10 8 -8 19 5 10 13 16
15 19 6 7 -15 34 -17 34 -3 0 6 7 10 15 10 8 0 15 -6 15 -12 0 -10 2 -10 8 -2
4 7 22 10 40 8 17 -2 32 1 32 6 0 6 11 10 25 10 14 0 25 -4 25 -9z m976 -60
c-5 -8 -56 -3 -56 5 0 2 14 4 31 4 16 0 28 -4 25 -9z m84 -1 c11 -7 4 -10 -25
-10 -29 0 -36 3 -25 10 8 5 20 10 25 10 6 0 17 -5 25 -10z m98 3 c-10 -2 -28
-2 -40 0 -13 2 -5 4 17 4 22 1 32 -1 23 -4z m-1949 -7 c-10 -10 -129 -15 -129
-6 0 6 29 10 67 10 36 0 64 -2 62 -4z m2293 -3 c-30 -2 -50 -8 -47 -14 4 -5 1
-9 -4 -9 -6 0 -11 7 -11 15 0 12 12 15 58 13 l57 -2 -53 -3z m-2432 -12 c0 -6
12 -12 28 -14 15 -2 9 -2 -13 0 -55 6 -83 6 -130 0 -22 -3 -50 -6 -63 -6 -16
-1 -21 -5 -16 -13 6 -9 3 -9 -9 0 -10 8 -27 11 -44 8 -15 -4 -46 -8 -68 -10
-22 -3 -60 -7 -85 -10 -25 -3 -37 -3 -27 0 9 3 17 9 17 13 0 4 8 7 18 8 87 8
159 15 222 22 107 12 170 12 170 2z m404 0 c4 -5 -3 -7 -14 -4 -23 6 -26 13
-6 13 8 0 17 -4 20 -9z m623 3 c-3 -3 -12 -4 -19 -1 -8 3 -5 6 6 6 11 1 17 -2
13 -5z m-904 -11 c-7 -2 -21 -2 -30 0 -10 3 -4 5 12 5 17 0 24 -2 18 -5z m51
-2 c3 -5 0 -11 -8 -14 -15 -6 -26 1 -26 15 0 11 27 10 34 -1z m173 -7 c-3 -3
-12 -4 -19 -1 -8 3 -5 6 6 6 11 1 17 -2 13 -5z m-803 -19 c-4 -9 -16 -21 -28
-27 -20 -11 -20 -10 -6 8 13 17 31 33 37 34 1 0 0 -7 -3 -15z m3203 9 c-3 -3
-12 -4 -19 -1 -8 3 -5 6 6 6 11 1 17 -2 13 -5z m-174 -11 c-7 -2 -19 -2 -25 0
-7 3 -2 5 12 5 14 0 19 -2 13 -5z m-2647 -23 c9 0 12 -5 9 -11 -4 -6 -13 -8
-20 -5 -7 2 -17 0 -23 -6 -7 -7 -16 -7 -29 1 -15 9 -15 10 -2 11 9 0 23 7 30
16 8 10 15 12 17 5 2 -6 10 -11 18 -11z m2249 10 c24 -6 20 -14 -6 -12 -55 6
-93 12 -97 17 -8 7 68 4 103 -5z m513 3 c-10 -2 -28 -2 -40 0 -13 2 -5 4 17 4
22 1 32 -1 23 -4z m-431 -19 c-3 -3 -12 -4 -19 -1 -8 3 -5 6 6 6 11 1 17 -2
13 -5z m-2573 -19 c-5 -11 1 -15 22 -16 24 -1 22 -3 -11 -9 -22 -4 -42 -6 -44
-4 -2 2 1 4 7 4 7 0 12 9 12 20 0 11 4 20 10 20 5 0 7 -7 4 -15z m3353 2 c6
-11 -135 -3 -145 8 -4 3 26 5 67 3 40 -1 75 -6 78 -11z m-3398 -6 c10 -7 8
-12 -10 -25 -13 -9 -30 -16 -39 -16 -8 1 -2 8 15 17 27 15 28 17 10 24 -13 5
-15 8 -5 8 8 0 21 -3 29 -8z m128 -7 c-3 -3 -12 -4 -19 -1 -8 3 -5 6 6 6 11 1
17 -2 13 -5z m3160 -10 c-3 -3 -12 -4 -19 -1 -8 3 -5 6 6 6 11 1 17 -2 13 -5z
m-3597 -24 c0 -5 -4 -10 -10 -10 -5 0 -10 5 -10 10 0 6 5 10 10 10 6 0 10 -4
10 -10z m-326 -61 c-3 -5 -10 -7 -15 -3 -5 3 -7 10 -3 15 3 5 10 7 15 3 5 -3
7 -10 3 -15z m41 11 c-3 -5 -11 -10 -16 -10 -6 0 -7 5 -4 10 3 6 11 10 16 10
6 0 7 -4 4 -10z m-218 -6 c-3 -3 -12 -4 -19 -1 -8 3 -5 6 6 6 11 1 17 -2 13
-5z m-59 -32 c2 -7 -1 -12 -8 -12 -6 0 -9 4 -6 9 4 5 1 12 -4 14 -6 3 -5 4 2
3 6 -1 14 -8 16 -14z"/>
<path d="M3140 2352 c0 -4 9 -8 20 -9 11 -1 18 2 15 8 -7 11 -35 12 -35 1z"/>
<path d="M3450 2200 c0 -5 6 -10 14 -10 8 0 23 -3 33 -6 16 -6 16 -5 -2 9 -23
19 -45 22 -45 7z"/>
<path d="M3590 2200 c0 -5 7 -10 15 -10 8 0 15 5 15 10 0 6 -7 10 -15 10 -8 0
-15 -4 -15 -10z"/>
<path d="M3550 2171 c14 -4 41 -10 60 -14 l35 -6 -30 14 c-16 8 -43 14 -60 14
-29 -1 -29 -1 -5 -8z"/>
<path d="M4030 2020 c0 -5 5 -10 11 -10 5 0 7 5 4 10 -3 6 -8 10 -11 10 -2 0
-4 -4 -4 -10z"/>
<path d="M3385 2320 c3 -5 10 -10 16 -10 5 0 9 5 9 10 0 6 -7 10 -16 10 -8 0
-12 -4 -9 -10z"/>
<path d="M4642 1821 c13 -22 28 -28 28 -11 0 5 -9 14 -20 20 -19 10 -20 10 -8
-9z"/>
<path d="M4775 1800 c21 -11 40 -18 43 -16 5 6 -54 36 -70 36 -7 0 5 -9 27
-20z"/>
<path d="M2756 671 c-10 -15 22 -20 34 -5 10 11 9 14 -8 14 -12 0 -23 -4 -26
-9z"/>
<path d="M2645 640 c-3 -5 -1 -10 4 -10 6 0 11 5 11 10 0 6 -2 10 -4 10 -3 0
-8 -4 -11 -10z"/>
<path d="M2688 643 c6 -2 18 -2 25 0 6 3 1 5 -13 5 -14 0 -19 -2 -12 -5z"/>
<path d="M2520 620 c-24 -8 -24 -8 7 -9 17 -1 35 4 38 9 7 11 -9 11 -45 0z"/>
<path d="M5850 3835 c0 -14 -3 -15 -15 -5 -19 15 -27 9 -30 -24 -3 -23 -1 -24
21 -14 23 11 41 44 30 55 -3 4 -6 -2 -6 -12z"/>
<path d="M3296 3824 c-3 -9 -6 -23 -6 -32 1 -14 2 -14 12 3 11 19 11 19 19 0
7 -18 8 -18 8 -2 1 10 -5 25 -13 32 -12 12 -15 12 -20 -1z"/>
<path d="M3256 3724 c-5 -14 -4 -15 9 -4 17 14 19 20 6 20 -5 0 -12 -7 -15
-16z"/>
<path d="M3391 3694 c0 -11 3 -14 6 -6 3 7 2 16 -1 19 -3 4 -6 -2 -5 -13z"/>
<path d="M5880 3664 c0 -8 5 -12 10 -9 6 4 8 11 5 16 -9 14 -15 11 -15 -7z"/>
<path d="M3256 3622 c-12 -20 -18 -92 -8 -92 6 0 14 20 18 45 6 44 2 66 -10
47z"/>
<path d="M5890 3611 c0 -11 5 -23 10 -26 6 -3 8 -16 4 -29 -3 -14 1 -27 11
-36 15 -13 16 -10 10 26 -11 71 -15 84 -25 84 -6 0 -10 -9 -10 -19z"/>
<path d="M5735 3580 c3 -5 8 -10 11 -10 2 0 4 5 4 10 0 6 -5 10 -11 10 -5 0
-7 -4 -4 -10z"/>
<path d="M5790 3254 c0 -8 5 -12 10 -9 6 4 8 11 5 16 -9 14 -15 11 -15 -7z"/>
<path d="M5982 3231 c4 -13 18 -16 19 -4 0 4 -5 9 -11 12 -7 2 -11 -2 -8 -8z"/>
<path d="M5800 3216 c0 -9 5 -16 10 -16 6 0 10 4 10 9 0 6 -4 13 -10 16 -5 3
-10 -1 -10 -9z"/>
<path d="M3107 3200 c-3 -11 -2 -20 3 -20 4 0 10 9 13 20 3 11 2 20 -3 20 -4
0 -10 -9 -13 -20z"/>
<path d="M3066 3120 c-9 -22 -16 -46 -16 -52 0 -19 33 18 35 39 0 10 4 24 8
30 4 6 3 14 -2 17 -5 3 -16 -12 -25 -34z"/>
<path d="M3131 3114 c0 -11 3 -14 6 -6 3 7 2 16 -1 19 -3 4 -6 -2 -5 -13z"/>
<path d="M1198 2938 c2 -35 10 -74 17 -87 11 -22 12 -21 19 28 8 64 25 66 77
11 21 -22 42 -40 47 -40 27 0 62 -46 82 -105 12 -36 27 -65 34 -65 32 0 66
-44 96 -123 18 -45 34 -86 37 -90 3 -5 17 3 32 16 30 29 99 67 120 67 33 0
-29 44 -129 92 -58 27 -113 57 -124 66 -10 10 -33 47 -51 83 -51 101 -144 181
-236 204 l-25 6 4 -63z"/>
<path d="M3070 2990 c0 -5 5 -10 10 -10 6 0 10 5 10 10 0 6 -4 10 -10 10 -5 0
-10 -4 -10 -10z"/>
<path d="M7593 2965 c-67 -34 -138 -111 -173 -188 -15 -34 -36 -69 -46 -78
-11 -9 -62 -38 -114 -63 -99 -49 -161 -96 -127 -96 26 0 78 -28 113 -61 l30
-29 38 95 c33 82 44 100 76 120 31 20 40 33 50 76 14 57 47 99 79 99 11 0 22
9 26 20 7 22 51 60 71 60 8 0 16 -18 20 -46 9 -65 28 -41 34 46 6 82 2 84 -77
45z"/>
<path d="M3050 2959 c0 -5 5 -7 10 -4 6 3 10 8 10 11 0 2 -4 4 -10 4 -5 0 -10
-5 -10 -11z"/>
<path d="M3077 2934 c-9 -9 4 -35 14 -28 5 3 9 12 9 20 0 14 -12 19 -23 8z"/>
<path d="M3021 2890 c-13 -37 5 -41 19 -4 12 31 12 34 1 34 -5 0 -14 -13 -20
-30z"/>
<path d="M6152 2895 c0 -16 2 -22 5 -12 2 9 2 23 0 30 -3 6 -5 -1 -5 -18z"/>
<path d="M2940 2895 c-8 -9 -8 -15 -2 -15 12 0 26 19 19 26 -2 2 -10 -2 -17
-11z"/>
<path d="M2915 2860 c-3 -5 -2 -10 4 -10 5 0 13 5 16 10 3 6 2 10 -4 10 -5 0
-13 -4 -16 -10z"/>
<path d="M6150 2781 c0 -5 5 -13 10 -16 6 -3 10 -2 10 4 0 5 -4 13 -10 16 -5
3 -10 2 -10 -4z"/>
<path d="M6131 2769 c-1 -19 26 -89 35 -89 3 0 2 5 -2 12 -4 6 0 16 9 23 11 7
13 16 6 26 -7 11 -9 11 -9 -4 0 -16 -2 -16 -14 -5 -8 8 -16 23 -19 34 -3 14
-5 15 -6 3z"/>
<path d="M2907 2746 c-10 -14 -13 -26 -8 -26 13 0 33 28 29 41 -2 6 -12 0 -21
-15z"/>
<path d="M2908 2695 c-10 -13 -18 -29 -18 -34 0 -6 -4 -11 -9 -11 -10 0 -25
-48 -22 -67 1 -8 -4 -10 -14 -7 -9 4 -15 3 -14 -2 2 -16 -13 -54 -23 -54 -5 0
-6 -5 -3 -10 9 -14 86 64 82 81 -2 8 -2 11 0 7 9 -16 21 -7 26 19 3 16 0 31
-6 35 -9 6 -8 8 1 8 7 0 10 5 7 10 -3 6 -2 10 3 10 5 0 12 9 15 20 7 27 -4 25
-25 -5z"/>
<path d="M6240 2690 c0 -5 5 -10 11 -10 5 0 7 5 4 10 -3 6 -8 10 -11 10 -2 0
-4 -4 -4 -10z"/>
<path d="M6260 2663 c0 -5 5 -15 10 -23 8 -12 10 -11 10 8 0 12 -4 22 -10 22
-5 0 -10 -3 -10 -7z"/>
<path d="M6229 2632 c9 -29 47 -92 56 -92 8 0 -36 95 -50 110 -13 12 -14 10
-6 -18z"/>
<path d="M0 2344 c0 -265 2 -305 15 -301 8 4 17 2 20 -3 4 -7 13 -6 25 0 28
15 40 12 40 -10 0 -22 -15 -27 -23 -7 -4 7 -6 6 -6 -5 -1 -9 -7 -19 -14 -21
-6 -3 12 -6 41 -6 34 -1 51 3 47 9 -4 6 -10 8 -15 5 -4 -3 -10 4 -13 15 -3 11
-1 23 4 26 5 3 9 1 9 -5 0 -7 8 -7 25 -1 16 6 34 6 51 0 14 -6 30 -8 35 -4 14
8 11 27 -3 21 -7 -2 -22 -1 -33 4 -18 7 -18 8 -2 8 10 1 15 6 12 11 -4 6 5 10
19 10 25 0 31 -11 26 -50 -1 -11 2 -10 12 3 13 18 15 17 26 -7 13 -29 30 -34
39 -10 5 12 7 13 14 2 7 -10 11 -10 21 0 10 10 10 15 -2 22 -13 9 -13 10 0 10
8 0 22 -5 30 -10 13 -8 13 -10 0 -10 -10 0 -11 -3 -3 -11 13 -13 33 -4 33 17
0 8 6 14 14 14 9 0 13 -8 10 -22 -2 -13 -2 -17 2 -10 3 6 12 12 20 12 9 0 12
5 9 10 -3 6 -2 10 4 10 5 0 11 -4 13 -9 2 -5 12 -3 23 6 16 12 16 14 3 10 -10
-3 -20 -2 -24 4 -3 6 -12 8 -20 5 -7 -3 -16 -2 -18 3 -3 4 130 8 294 9 181 0
300 -3 300 -9 0 -5 5 -9 11 -9 5 0 7 5 4 10 -4 6 11 10 38 10 44 0 77 21 77
48 0 9 -127 12 -509 12 -406 0 -511 3 -519 13 -33 40 -40 301 -10 392 l13 40
423 3 422 2 -16 25 -16 25 -489 0 -489 0 0 -306z m193 -261 c-7 -2 -21 -2 -30
0 -10 3 -4 5 12 5 17 0 24 -2 18 -5z m172 -2 c15 -6 12 -9 -19 -14 -27 -4 -45
-2 -60 8 -19 14 -18 15 19 14 22 0 49 -4 60 -8z m80 -1 c-3 -5 -12 -10 -20
-10 -8 0 -17 5 -20 10 -4 6 5 10 20 10 15 0 24 -4 20 -10z"/>
<path d="M1160 2644 c0 -5 7 -18 15 -28 12 -16 15 -17 15 -4 0 8 -7 21 -15 28
-8 7 -15 9 -15 4z"/>
<path d="M3745 2640 c-3 -6 1 -7 9 -4 18 7 21 14 7 14 -6 0 -13 -4 -16 -10z"/>
<path d="M3820 2635 c0 -9 44 -23 54 -17 5 3 1 9 -10 13 -23 9 -44 11 -44 4z"/>
<path d="M2781 2604 c0 -11 3 -14 6 -6 3 7 2 16 -1 19 -3 4 -6 -2 -5 -13z"/>
<path d="M3495 2610 c3 -5 8 -10 11 -10 2 0 4 5 4 10 0 6 -5 10 -11 10 -5 0
-7 -4 -4 -10z"/>
<path d="M5528 2583 c7 -3 16 -2 19 1 4 3 -2 6 -13 5 -11 0 -14 -3 -6 -6z"/>
<path d="M3350 2538 c-20 -44 -12 -61 16 -37 9 7 13 21 10 33 -3 11 0 26 6 33
7 9 7 13 -1 13 -7 0 -21 -19 -31 -42z"/>
<path d="M3450 2570 c0 -12 8 -12 35 0 18 8 17 9 -7 9 -16 1 -28 -3 -28 -9z"/>
<path d="M3713 2563 c9 -2 23 -2 30 0 6 3 -1 5 -18 5 -16 0 -22 -2 -12 -5z"/>
<path d="M6235 2540 c10 -11 20 -18 23 -15 7 6 -18 35 -31 35 -5 0 -2 -9 8
-20z"/>
<path d="M5615 2519 c-10 -15 1 -23 20 -15 9 3 13 10 10 16 -8 13 -22 13 -30
-1z"/>
<path d="M4070 2516 c0 -2 7 -6 15 -10 8 -3 15 -1 15 4 0 6 -7 10 -15 10 -8 0
-15 -2 -15 -4z"/>
<path d="M8935 2513 c-311 -40 -582 -162 -819 -366 -64 -56 -196 -201 -196
-217 0 -5 60 50 133 123 141 142 254 226 402 297 145 70 326 125 451 137 44 4
64 10 64 19 0 8 -1 13 -2 13 -2 -1 -16 -4 -33 -6z"/>
<path d="M3960 2500 c0 -5 12 -10 28 -9 24 0 25 1 7 9 -27 12 -35 12 -35 0z"/>
<path d="M6255 2500 c3 -5 8 -10 11 -10 2 0 4 5 4 10 0 6 -5 10 -11 10 -5 0
-7 -4 -4 -10z"/>
<path d="M5634 2492 c-12 -1 -27 -15 -33 -29 -11 -23 -10 -25 3 -14 9 7 22 11
30 8 9 -4 16 3 20 16 6 25 7 24 -20 19z"/>
<path d="M2690 2480 c0 -5 5 -10 11 -10 5 0 7 5 4 10 -3 6 -8 10 -11 10 -2 0
-4 -4 -4 -10z"/>
<path d="M3836 2475 c-3 -8 -1 -15 4 -15 6 0 10 7 10 15 0 8 -2 15 -4 15 -2 0
-6 -7 -10 -15z"/>
<path d="M3330 2470 c0 -5 5 -10 10 -10 6 0 10 5 10 10 0 6 -4 10 -10 10 -5 0
-10 -4 -10 -10z"/>
<path d="M4428 2473 c7 -3 16 -2 19 1 4 3 -2 6 -13 5 -11 0 -14 -3 -6 -6z"/>
<path d="M3909 2459 c-5 -3 2 -11 15 -17 20 -9 28 -8 41 4 8 9 15 17 15 19 0
6 -60 1 -71 -6z"/>
<path d="M5495 2460 c3 -5 12 -7 20 -3 21 7 19 13 -6 13 -11 0 -18 -4 -14 -10z"/>
<path d="M4275 2450 c4 -6 11 -8 16 -5 14 9 11 15 -7 15 -8 0 -12 -5 -9 -10z"/>
<path d="M5115 2451 c-10 -17 12 -21 25 -6 10 12 10 15 -3 15 -9 0 -18 -4 -22
-9z"/>
<path d="M3675 2441 c-10 -18 15 -22 37 -7 l22 16 -26 0 c-15 0 -29 -4 -33 -9z"/>
<path d="M3800 2439 c0 -5 5 -7 10 -4 6 3 10 8 10 11 0 2 -4 4 -10 4 -5 0 -10
-5 -10 -11z"/>
<path d="M3830 2435 c0 -8 5 -15 10 -15 6 0 10 7 10 15 0 8 -4 15 -10 15 -5 0
-10 -7 -10 -15z"/>
<path d="M4068 2443 c7 -3 16 -2 19 1 4 3 -2 6 -13 5 -11 0 -14 -3 -6 -6z"/>
<path d="M5396 2435 c-3 -8 -1 -15 4 -15 6 0 10 7 10 15 0 8 -2 15 -4 15 -2 0
-6 -7 -10 -15z"/>
<path d="M2508 2428 c-16 -5 -28 -13 -28 -18 0 -5 14 -2 30 6 17 9 30 17 30
20 0 2 -1 4 -2 3 -2 0 -15 -5 -30 -11z"/>
<path d="M4390 2430 c0 -10 47 -30 54 -23 13 13 5 21 -24 25 -16 3 -30 2 -30
-2z"/>
<path d="M3925 2421 c-25 -5 -27 -8 -12 -14 17 -6 57 7 57 18 0 6 -3 5 -45 -4z"/>
<path d="M4515 2420 c-3 -5 -1 -10 4 -10 6 0 11 5 11 10 0 6 -2 10 -4 10 -3 0
-8 -4 -11 -10z"/>
<path d="M5362 2414 c-7 -8 -8 -14 -3 -14 10 0 25 19 20 25 -2 1 -10 -3 -17
-11z"/>
<path d="M5510 2420 c0 -5 -11 -10 -24 -10 -19 0 -23 -4 -19 -20 3 -12 0 -20
-8 -20 -7 0 -10 -2 -8 -5 3 -2 22 2 42 9 35 12 43 30 9 20 -10 -3 -7 1 6 7 23
12 30 29 12 29 -5 0 -10 -4 -10 -10z"/>
<path d="M4289 2406 c7 -8 21 -12 32 -9 16 5 18 8 7 14 -7 5 -21 9 -32 9 -15
0 -16 -3 -7 -14z"/>
<path d="M4468 2413 c7 -3 16 -2 19 1 4 3 -2 6 -13 5 -11 0 -14 -3 -6 -6z"/>
<path d="M4120 2400 c0 -5 5 -10 11 -10 5 0 7 5 4 10 -3 6 -8 10 -11 10 -2 0
-4 -4 -4 -10z"/>
<path d="M4155 2400 c-9 -14 -6 -17 22 -22 12 -1 22 2 22 7 -1 6 -6 9 -12 7
-5 -2 -13 2 -17 9 -6 8 -9 8 -15 -1z"/>
<path d="M4390 2395 c0 -8 5 -15 10 -15 6 0 10 7 10 15 0 8 -4 15 -10 15 -5 0
-10 -7 -10 -15z"/>
<path d="M5018 2403 c-10 -2 -18 -8 -18 -13 0 -10 38 -1 46 11 5 9 1 10 -28 2z"/>
<path d="M4535 2390 c-4 -6 9 -10 31 -10 42 0 42 4 2 14 -15 3 -30 2 -33 -4z"/>
<path d="M4267 2376 c-4 -9 4 -16 21 -19 34 -7 35 -6 7 15 -19 14 -24 15 -28
4z"/>
<path d="M4741 2386 c2 -2 18 -6 34 -10 22 -5 26 -4 15 4 -14 9 -59 15 -49 6z"/>
<path d="M5364 2381 c3 -5 15 -7 26 -4 28 7 25 13 -6 13 -14 0 -23 -4 -20 -9z"/>
<path d="M4510 2370 c0 -5 5 -10 11 -10 5 0 7 5 4 10 -3 6 -8 10 -11 10 -2 0
-4 -4 -4 -10z"/>
<path d="M4635 2370 c3 -5 18 -10 33 -9 24 0 25 1 7 9 -28 12 -47 12 -40 0z"/>
<path d="M5232 2373 c-20 -8 6 -33 32 -32 19 1 18 2 -4 9 l-25 7 25 11 c21 9
22 11 5 11 -11 -1 -26 -3 -33 -6z"/>
<path d="M5670 2369 c0 -5 5 -7 10 -4 6 3 10 8 10 11 0 2 -4 4 -10 4 -5 0 -10
-5 -10 -11z"/>
<path d="M4890 2360 c0 -5 7 -7 15 -4 8 4 15 8 15 10 0 2 -7 4 -15 4 -8 0 -15
-4 -15 -10z"/>
<path d="M4745 2350 c3 -5 8 -10 11 -10 2 0 4 5 4 10 0 6 -5 10 -11 10 -5 0
-7 -4 -4 -10z"/>
<path d="M5000 2350 c-12 -8 -10 -10 8 -10 13 0 20 4 17 10 -7 12 -6 12 -25 0z"/>
<path d="M5376 2353 c-4 -5 -13 -8 -18 -8 -6 0 -13 -5 -15 -12 -5 -15 33 -5
48 13 12 14 -2 20 -15 7z"/>
<path d="M5505 2350 c-3 -5 -1 -10 4 -10 6 0 11 5 11 10 0 6 -2 10 -4 10 -3 0
-8 -4 -11 -10z"/>
<path d="M5147 2343 c-4 -3 -7 -13 -7 -22 1 -13 3 -13 11 2 11 19 8 33 -4 20z"/>
<path d="M4660 2329 c0 -5 5 -7 10 -4 6 3 10 8 10 11 0 2 -4 4 -10 4 -5 0 -10
-5 -10 -11z"/>
<path d="M4538 2323 c7 -3 16 -2 19 1 4 3 -2 6 -13 5 -11 0 -14 -3 -6 -6z"/>
<path d="M5008 2323 c-16 -2 -28 -10 -28 -18 0 -16 34 -9 51 11 6 8 10 13 8
13 -2 -1 -16 -4 -31 -6z"/>
<path d="M4098 2313 c7 -3 16 -2 19 1 4 3 -2 6 -13 5 -11 0 -14 -3 -6 -6z"/>
<path d="M4178 2313 c7 -3 16 -2 19 1 4 3 -2 6 -13 5 -11 0 -14 -3 -6 -6z"/>
<path d="M4498 2302 c-5 -17 -1 -20 20 -18 14 2 28 8 30 15 2 7 -3 9 -13 5 -9
-4 -20 -1 -25 5 -5 9 -9 7 -12 -7z"/>
<path d="M5108 2313 c10 -4 9 -8 -5 -19 -20 -15 -6 -19 16 -5 15 10 7 31 -12
30 -8 0 -8 -2 1 -6z"/>
<path d="M4760 2300 c-14 -4 -21 -8 -16 -9 6 -1 1 -8 -10 -16 -10 -8 -15 -15
-11 -15 15 0 67 31 67 40 0 6 -1 10 -2 9 -2 -1 -14 -5 -28 -9z"/>
<path d="M4862 2289 c-13 -5 -20 -13 -17 -19 4 -6 13 -7 23 -1 17 9 24 11 43
11 5 0 7 5 4 10 -7 12 -22 12 -53 -1z"/>
<path d="M5374 2285 c-4 -8 -26 -24 -50 -34 -54 -24 -57 -33 -6 -19 52 14 74
27 66 40 -4 5 0 14 7 19 11 7 11 9 1 9 -7 0 -15 -7 -18 -15z"/>
<path d="M5330 2280 c0 -5 7 -10 15 -10 8 0 15 5 15 10 0 6 -7 10 -15 10 -8 0
-15 -4 -15 -10z"/>
<path d="M4618 2260 c-14 -10 -28 -16 -32 -13 -3 3 -6 1 -6 -5 0 -18 52 -18
99 -1 l25 10 -28 14 c-35 18 -29 19 -58 -5z"/>
<path d="M4983 2273 c-23 -9 -14 -20 12 -15 14 2 25 8 25 13 0 10 -17 11 -37
2z"/>
<path d="M4518 2253 c7 -3 16 -2 19 1 4 3 -2 6 -13 5 -11 0 -14 -3 -6 -6z"/>
<path d="M4990 2240 c0 -5 7 -10 15 -10 8 0 15 5 15 10 0 6 -7 10 -15 10 -8 0
-15 -4 -15 -10z"/>
<path d="M4393 2232 c-22 -3 -33 -32 -13 -32 6 0 10 5 10 11 0 5 4 8 9 4 5 -3
13 0 16 6 9 14 5 16 -22 11z"/>
<path d="M4510 2230 c-19 -5 -26 -14 -31 -43 -3 -20 -1 -41 5 -47 7 -7 6 -10
-2 -10 -7 0 -12 -4 -12 -9 0 -5 14 -4 30 2 25 10 30 17 30 46 0 22 7 40 21 52
19 16 19 18 2 16 -10 0 -29 -4 -43 -7z m4 -39 c3 -5 -1 -11 -9 -15 -9 -3 -15
0 -15 9 0 16 16 20 24 6z"/>
<path d="M4685 2219 c-4 -6 -5 -13 -2 -16 7 -7 27 6 27 18 0 12 -17 12 -25 -2z"/>
<path d="M4606 2201 c2 -2 -1 -10 -6 -16 -8 -9 -6 -14 5 -19 8 -3 15 -1 15 5
0 6 4 8 9 5 14 -9 41 4 41 19 0 9 -12 13 -34 12 -19 -1 -32 -4 -30 -6z"/>
<path d="M1008 2073 c6 -2 18 -2 25 0 6 3 1 5 -13 5 -14 0 -19 -2 -12 -5z"/>
<path d="M1090 2070 c0 -5 5 -10 10 -10 6 0 10 5 10 10 0 6 -4 10 -10 10 -5 0
-10 -4 -10 -10z"/>
<path d="M1175 2070 c-3 -5 1 -10 10 -10 9 0 13 5 10 10 -3 6 -8 10 -10 10 -2
0 -7 -4 -10 -10z"/>
<path d="M585 2060 l-40 -7 43 -2 c23 0 42 4 42 9 0 6 -1 9 -2 9 -2 -1 -21 -5
-43 -9z"/>
<path d="M641 2056 c8 -8 88 -10 95 -3 4 4 -17 7 -46 7 -29 0 -51 -2 -49 -4z"/>
<path d="M785 2051 c-3 -5 0 -13 6 -17 7 -4 9 -3 5 4 -3 5 0 13 6 15 9 4 10 6
1 6 -6 1 -14 -3 -18 -8z"/>
<path d="M1328 2053 c7 -3 16 -2 19 1 4 3 -2 6 -13 5 -11 0 -14 -3 -6 -6z"/>
<path d="M845 2040 c3 -5 11 -10 16 -10 6 0 7 5 4 10 -3 6 -11 10 -16 10 -6 0
-7 -4 -4 -10z"/>
<path d="M898 2033 c7 -3 16 -2 19 1 4 3 -2 6 -13 5 -11 0 -14 -3 -6 -6z"/>
<path d="M520 2020 c0 -5 5 -10 10 -10 6 0 10 5 10 10 0 6 -4 10 -10 10 -5 0
-10 -4 -10 -10z"/>
<path d="M2 2008 c7 -19 38 -22 38 -4 0 10 -9 16 -21 16 -12 0 -19 -5 -17 -12z"/>
<path d="M190 2005 c0 -8 10 -16 23 -17 12 0 41 -2 65 -4 23 -2 42 1 42 7 0 8
-54 14 -87 10 -7 -1 -13 3 -13 9 0 5 -7 10 -15 10 -8 0 -15 -7 -15 -15z"/>
<path d="M670 2010 c0 -5 5 -10 11 -10 5 0 7 5 4 10 -3 6 -8 10 -11 10 -2 0
-4 -4 -4 -10z"/>
<path d="M334 1998 c-3 -4 3 -11 13 -15 10 -3 22 -8 27 -11 5 -3 6 1 1 8 -6
10 -4 12 8 7 10 -3 17 -3 17 2 0 12 -60 20 -66 9z"/>
<path d="M165 1990 c3 -5 8 -10 11 -10 2 0 4 5 4 10 0 6 -5 10 -11 10 -5 0 -7
-4 -4 -10z"/>
<path d="M457 1993 c18 -2 50 -2 70 0 21 2 7 4 -32 4 -38 0 -55 -2 -38 -4z"/>
<path d="M48 1973 c7 -3 16 -2 19 1 4 3 -2 6 -13 5 -11 0 -14 -3 -6 -6z"/>
<path d="M0 1953 c0 -7 3 -13 8 -13 4 -1 34 -3 67 -6 78 -8 64 11 -17 24 -47
7 -58 6 -58 -5z"/>
<path d="M216 1956 c10 -8 21 -12 24 -10 5 6 -21 24 -34 24 -6 0 -1 -6 10 -14z"/>
<path d="M23 1897 c2 -7 24 -13 48 -13 24 -1 63 -4 87 -7 41 -6 55 4 30 19
-21 13 -170 14 -165 1z"/>
<path d="M228 1871 c27 -24 28 -35 2 -28 -11 3 -20 1 -20 -4 0 -5 17 -9 38 -9
28 0 33 3 22 10 -13 8 -13 11 -1 19 21 13 7 26 -31 29 l-33 2 23 -19z"/>
<path d="M320 1870 c0 -5 5 -10 10 -10 6 0 10 5 10 10 0 6 -4 10 -10 10 -5 0
-10 -4 -10 -10z"/>
<path d="M15 1860 c-3 -5 -1 -10 4 -10 6 0 11 5 11 10 0 6 -2 10 -4 10 -3 0
-8 -4 -11 -10z"/>
<path d="M385 1860 c-3 -5 1 -10 9 -10 9 0 16 5 16 10 0 6 -4 10 -9 10 -6 0
-13 -4 -16 -10z"/>
<path d="M526 1841 c-3 -4 6 -6 19 -3 14 2 25 6 25 8 0 8 -39 4 -44 -5z"/>
<path d="M398 1833 c6 -2 18 -2 25 0 6 3 1 5 -13 5 -14 0 -19 -2 -12 -5z"/>
<path d="M6767 1383 c-4 -3 -7 -11 -7 -17 0 -6 5 -5 12 2 6 6 9 14 7 17 -3 3
-9 2 -12 -2z"/>
<path d="M6945 1380 c-3 -5 -2 -10 4 -10 5 0 13 5 16 10 3 6 2 10 -4 10 -5 0
-13 -4 -16 -10z"/>
<path d="M1500 1345 c0 -7 7 -12 15 -12 8 0 12 4 9 8 -2 4 2 9 8 12 7 3 3 4
-9 4 -13 -1 -23 -6 -23 -12z"/>
<path d="M1925 1340 c-3 -5 -1 -10 4 -10 6 0 11 5 11 10 0 6 -2 10 -4 10 -3 0
-8 -4 -11 -10z"/>
<path d="M2158 1343 c7 -3 16 -2 19 1 4 3 -2 6 -13 5 -11 0 -14 -3 -6 -6z"/>
<path d="M2175 1304 c-25 -12 -26 -14 -5 -9 14 4 33 7 43 8 9 1 17 5 17 9 0
12 -21 8 -55 -8z"/>
<path d="M1458 1293 c6 -2 18 -2 25 0 6 3 1 5 -13 5 -14 0 -19 -2 -12 -5z"/>
<path d="M2195 1279 c-4 -5 16 -9 46 -9 29 0 50 2 48 4 -10 10 -89 14 -94 5z"/>
<path d="M2145 1270 c-19 -8 -19 -9 3 -9 12 -1 22 4 22 9 0 6 -1 10 -2 9 -2 0
-12 -4 -23 -9z"/>
<path d="M1395 1250 c-3 -5 1 -10 9 -10 9 0 16 5 16 10 0 6 -4 10 -9 10 -6 0
-13 -4 -16 -10z"/>
<path d="M1483 1253 c9 -2 23 -2 30 0 6 3 -1 5 -18 5 -16 0 -22 -2 -12 -5z"/>
<path d="M2120 1243 c-25 -2 -52 -6 -60 -9 -28 -11 27 -24 60 -14 17 5 37 7
44 4 8 -3 16 2 19 10 4 10 1 15 -6 14 -7 -1 -32 -3 -57 -5z"/>
<path d="M1950 1236 c0 -9 40 -13 46 -5 3 5 -6 9 -20 9 -14 0 -26 -2 -26 -4z"/>
<path d="M1938 1213 c7 -3 16 -2 19 1 4 3 -2 6 -13 5 -11 0 -14 -3 -6 -6z"/>
<path d="M1347 1194 c-8 -8 1 -24 13 -24 4 0 10 7 14 15 5 15 -14 21 -27 9z"/>
<path d="M1425 1190 c3 -5 8 -10 11 -10 2 0 4 5 4 10 0 6 -5 10 -11 10 -5 0
-7 -4 -4 -10z"/>
<path d="M2068 1193 c6 -2 18 -2 25 0 6 3 1 5 -13 5 -14 0 -19 -2 -12 -5z"/>
<path d="M6905 1190 c-3 -5 -1 -10 4 -10 6 0 11 5 11 10 0 6 -2 10 -4 10 -3 0
-8 -4 -11 -10z"/>
<path d="M6938 1183 c7 -3 16 -2 19 1 4 3 -2 6 -13 5 -11 0 -14 -3 -6 -6z"/>
<path d="M1425 1149 c-11 -16 -1 -19 13 -3 7 8 8 14 3 14 -5 0 -13 -5 -16 -11z"/>
<path d="M7518 1143 c6 -2 18 -2 25 0 6 3 1 5 -13 5 -14 0 -19 -2 -12 -5z"/>
<path d="M2145 1120 c3 -5 8 -10 11 -10 2 0 4 5 4 10 0 6 -5 10 -11 10 -5 0
-7 -4 -4 -10z"/>
<path d="M6948 1103 c7 -3 16 -2 19 1 4 3 -2 6 -13 5 -11 0 -14 -3 -6 -6z"/>
<path d="M1920 1090 c-9 -6 -10 -10 -3 -10 6 0 15 5 18 10 8 12 4 12 -15 0z"/>
<path d="M8202 1084 c-18 -20 6 -28 50 -16 45 12 84 9 81 -6 -2 -7 4 -12 12
-12 8 0 15 5 15 10 0 6 5 10 11 10 5 0 7 -4 4 -10 -4 -6 9 -10 32 -11 30 0 34
-2 18 -9 -11 -5 -32 -9 -47 -9 -16 -1 -28 -5 -28 -10 0 -4 11 -7 25 -6 13 2
29 -2 34 -9 8 -10 0 -13 -35 -14 -42 0 -63 -12 -64 -34 0 -5 13 -8 29 -8 16 0
31 -5 33 -11 3 -8 23 -9 66 -4 34 4 60 11 57 16 -3 4 -13 5 -22 2 -11 -4 -14
-3 -9 5 4 7 3 12 -3 12 -5 0 -12 -6 -15 -12 -5 -10 -7 -10 -12 0 -7 15 -25 16
-21 1 1 -6 -3 -13 -8 -15 -6 -2 -11 4 -12 14 -1 14 7 18 40 19 62 2 90 -5 83
-22 -4 -12 6 -15 54 -15 47 0 60 3 60 15 0 8 7 15 15 15 9 0 12 -6 9 -15 -4
-8 -1 -15 5 -15 6 0 11 6 11 13 0 8 4 7 10 -3 8 -12 10 -10 10 10 0 20 2 22
10 10 6 -10 10 -11 10 -2 0 6 7 12 17 12 15 0 15 -1 -1 -18 -15 -18 -14 -19
19 -20 39 -2 43 4 18 25 -17 13 -16 14 7 10 14 -2 34 -8 44 -12 16 -7 18 -5
13 9 -5 12 -3 16 5 13 7 -2 12 -11 10 -20 -2 -13 8 -16 62 -14 l64 1 0 32 c0
32 0 32 -44 28 -38 -5 -45 -2 -52 15 -5 15 -11 18 -22 11 -10 -7 -11 -10 -2
-10 6 0 12 -7 12 -15 0 -8 -4 -15 -9 -15 -13 0 -32 26 -24 33 3 4 1 7 -6 7 -8
0 -11 -6 -7 -16 4 -12 2 -15 -9 -10 -8 3 -15 1 -15 -5 0 -6 -9 -8 -20 -4 -11
4 -20 2 -20 -4 0 -14 -27 -14 -36 0 -9 15 17 30 40 23 12 -4 16 -2 12 5 -11
17 -66 14 -66 -4 0 -8 -4 -15 -10 -15 -5 0 -10 5 -10 10 0 6 -9 20 -20 32 -11
12 -20 17 -20 11 0 -7 -18 -10 -50 -9 -27 2 -50 -1 -50 -6 0 -4 -4 -8 -10 -8
-5 0 -10 9 -10 21 0 15 5 19 18 15 17 -5 67 -9 90 -7 7 1 10 6 7 11 -3 6 -1
10 4 10 6 0 11 -3 11 -7 0 -5 25 -9 55 -10 45 -2 55 0 55 13 0 14 -3 14 -16 3
-13 -10 -17 -10 -23 0 -7 10 -57 12 -232 10 -132 -3 -227 -8 -231 -14 -5 -6
-12 -5 -20 3 -15 15 -20 15 -36 -4z m297 -13 c21 -13 5 -41 -24 -41 -14 0 -25
5 -25 11 0 6 9 9 20 6 11 -3 20 -2 20 2 0 4 -21 12 -47 18 l-48 10 45 1 c25 1
51 -2 59 -7z m91 -46 c7 -8 9 -15 6 -15 -4 0 -14 7 -22 15 -9 8 -11 15 -6 15
5 0 15 -7 22 -15z m68 -12 c-10 -2 -26 -2 -35 0 -10 3 -2 5 17 5 19 0 27 -2
18 -5z m-125 -14 c-19 -7 -82 -3 -91 6 -3 2 21 4 53 3 36 -1 50 -4 38 -9z
m-163 -29 c0 -5 -9 -10 -21 -10 -11 0 -17 5 -14 10 3 6 13 10 21 10 8 0 14 -4
14 -10z m240 0 c8 -5 11 -12 7 -17 -5 -4 -11 -3 -15 3 -4 6 -14 14 -22 17 -13
5 -13 5 0 6 8 0 22 -3 30 -9z m-55 -10 c3 -5 2 -10 -4 -10 -5 0 -13 5 -16 10
-3 6 -2 10 4 10 5 0 13 -4 16 -10z"/>
<path d="M8900 1090 c-43 -5 -49 -7 -25 -10 40 -7 95 0 95 11 0 5 -3 8 -7 7
-5 -1 -33 -4 -63 -8z"/>
<path d="M1870 1081 c0 -5 -10 -12 -22 -14 -14 -3 -7 -5 16 -6 33 -1 37 1 26
14 -14 17 -20 19 -20 6z"/>
<path d="M8790 1080 c0 -13 12 -19 26 -13 21 8 17 22 -6 20 -11 -1 -20 -4 -20
-7z"/>
<path d="M1505 1071 c-13 -5 -4 -8 29 -8 26 -1 46 0 44 1 -10 9 -56 13 -73 7z"/>
<path d="M8020 1070 c-11 -7 -2 -10 29 -10 48 0 51 4 11 13 -14 3 -32 2 -40
-3z"/>
<path d="M8130 1070 c-22 -7 -21 -8 13 -9 20 -1 37 4 37 9 0 11 -14 11 -50 0z"/>
<path d="M1314 1061 c3 -5 -1 -12 -10 -15 -9 -4 -12 -2 -8 5 4 7 -1 10 -11 7
-10 -1 -20 -9 -23 -17 -3 -8 0 -11 6 -7 6 3 12 1 14 -5 3 -9 11 -8 28 2 14 7
28 13 32 14 4 0 13 6 20 13 10 10 5 12 -21 12 -18 0 -30 -4 -27 -9z"/>
<path d="M7948 1053 c7 -3 16 -2 19 1 4 3 -2 6 -13 5 -11 0 -14 -3 -6 -6z"/>
<path d="M7618 1043 c7 -3 16 -2 19 1 4 3 -2 6 -13 5 -11 0 -14 -3 -6 -6z"/>
<path d="M8900 1040 c0 -5 5 -10 11 -10 5 0 7 5 4 10 -3 6 -8 10 -11 10 -2 0
-4 -4 -4 -10z"/>
<path d="M8955 1040 c3 -5 8 -10 11 -10 2 0 4 5 4 10 0 6 -5 10 -11 10 -5 0
-7 -4 -4 -10z"/>
<path d="M8038 1033 c6 -2 18 -2 25 0 6 3 1 5 -13 5 -14 0 -19 -2 -12 -5z"/>
<path d="M8166 1021 c-3 -5 -14 -8 -24 -6 -9 1 -11 0 -4 -2 19 -7 14 -20 -10
-27 -30 -8 -43 -8 -35 0 8 8 -18 34 -35 34 -10 0 -9 -3 2 -10 13 -8 12 -11 -5
-25 -18 -15 -18 -16 -1 -11 13 5 17 2 12 -9 -4 -10 1 -15 15 -15 11 0 18 4 15
8 -6 10 24 9 39 0 16 -10 105 -7 105 3 0 13 28 11 32 -2 2 -6 12 -1 22 10 l19
21 -66 -3 c-66 -4 -100 4 -78 17 6 4 15 4 21 1 6 -3 7 1 4 9 -7 18 -20 21 -28
7z"/>
<path d="M8280 1019 c0 -5 5 -7 10 -4 6 3 10 8 10 11 0 2 -4 4 -10 4 -5 0 -10
-5 -10 -11z"/>
<path d="M8310 1020 c0 -5 4 -10 9 -10 6 0 13 5 16 10 3 6 -1 10 -9 10 -9 0
-16 -4 -16 -10z"/>
<path d="M1340 1000 c0 -5 7 -7 15 -4 8 4 15 8 15 10 0 2 -7 4 -15 4 -8 0 -15
-4 -15 -10z"/>
<path d="M7913 1003 c4 -6 1 -14 -5 -16 -7 -3 0 -6 16 -6 16 -1 27 0 25 2 -2
1 -13 9 -23 17 -11 8 -17 10 -13 3z"/>
<path d="M5 980 c4 -6 11 -8 16 -5 14 9 11 15 -7 15 -8 0 -12 -5 -9 -10z"/>
<path d="M50 979 c0 -5 5 -7 10 -4 6 3 10 8 10 11 0 2 -4 4 -10 4 -5 0 -10 -5
-10 -11z"/>
<path d="M170 975 c43 -16 53 -18 46 -6 -4 5 0 11 6 14 7 2 -9 4 -37 4 l-50 1
35 -13z"/>
<path d="M273 983 c9 -2 23 -2 30 0 6 3 -1 5 -18 5 -16 0 -22 -2 -12 -5z"/>
<path d="M329 988 c-9 -17 -3 -48 8 -48 8 0 11 5 8 10 -3 6 -1 10 4 10 6 0 11
7 11 15 0 12 -26 22 -31 13z"/>
<path d="M7968 983 c7 -3 16 -2 19 1 4 3 -2 6 -13 5 -11 0 -14 -3 -6 -6z"/>
<path d="M590 970 c0 -5 5 -10 11 -10 5 0 7 5 4 10 -3 6 -8 10 -11 10 -2 0 -4
-4 -4 -10z"/>
<path d="M630 970 c0 -5 9 -10 21 -10 11 0 17 5 14 10 -3 6 -13 10 -21 10 -8
0 -14 -4 -14 -10z"/>
<path d="M705 970 c3 -5 8 -10 11 -10 2 0 4 5 4 10 0 6 -5 10 -11 10 -5 0 -7
-4 -4 -10z"/>
<path d="M785 969 c6 -9 45 -8 45 2 0 4 -11 7 -25 7 -13 0 -22 -4 -20 -9z"/>
<path d="M7593 973 c9 -2 25 -2 35 0 9 3 1 5 -18 5 -19 0 -27 -2 -17 -5z"/>
<path d="M761 954 c0 -11 3 -14 6 -6 3 7 2 16 -1 19 -3 4 -6 -2 -5 -13z"/>
<path d="M1123 963 c9 -2 23 -2 30 0 6 3 -1 5 -18 5 -16 0 -22 -2 -12 -5z"/>
<path d="M7865 959 c-22 -5 -12 -7 38 -8 37 0 67 2 67 7 0 9 -66 10 -105 1z"/>
<path d="M8000 960 c0 -5 10 -10 23 -10 18 0 19 2 7 10 -19 13 -30 13 -30 0z"/>
<path d="M37 941 c24 -26 100 -44 100 -25 0 9 -11 14 -28 14 -15 0 -29 4 -31
8 -1 5 -16 12 -31 16 -28 7 -28 6 -10 -13z"/>
<path d="M132 943 c16 -2 25 -9 22 -16 -5 -13 5 -15 78 -17 21 -1 39 -7 42
-16 3 -8 13 -14 23 -13 16 0 16 1 -1 8 -11 4 -15 10 -10 13 17 10 152 9 159
-2 3 -5 12 -10 18 -10 7 0 6 4 -3 10 -12 8 -10 10 8 10 13 0 20 -4 17 -10 -3
-5 -2 -10 4 -10 5 0 12 4 15 9 3 5 47 8 96 6 50 -1 93 2 96 6 3 5 -7 9 -21 9
-15 0 -24 4 -20 10 3 6 2 10 -4 10 -5 0 -12 -6 -15 -12 -5 -10 -7 -10 -12 0
-3 6 -10 12 -15 12 -6 0 -7 -4 -4 -10 3 -5 2 -10 -4 -10 -5 0 -12 6 -14 13 -4
10 -6 10 -6 0 -1 -15 -31 -18 -31 -3 0 6 -5 10 -11 10 -5 0 -7 -5 -4 -11 6 -9
-153 -6 -290 6 -16 1 -55 4 -85 7 -30 3 -43 3 -28 1z"/>
<path d="M3 930 c2 -8 12 -16 23 -17 13 -2 15 -1 4 4 -8 3 -19 11 -23 17 -6 7
-7 6 -4 -4z"/>
<path d="M8090 930 c-54 -8 -54 -8 18 -6 39 0 72 -2 72 -5 0 -3 12 -4 26 -1
19 3 22 7 12 13 -15 10 -46 9 -128 -1z"/>
<path d="M8318 933 c7 -3 16 -2 19 1 4 3 -2 6 -13 5 -11 0 -14 -3 -6 -6z"/>
<path d="M8248 923 c6 -2 18 -2 25 0 6 3 1 5 -13 5 -14 0 -19 -2 -12 -5z"/>
<path d="M715 910 c3 -5 13 -7 23 -4 11 4 8 -2 -8 -15 -14 -11 -20 -21 -13
-21 6 0 15 5 18 10 4 6 11 8 16 5 5 -4 9 3 9 14 0 16 -6 21 -26 21 -14 0 -23
-4 -19 -10z"/>
<path d="M965 910 c3 -5 8 -10 11 -10 2 0 4 5 4 10 0 6 -5 10 -11 10 -5 0 -7
-4 -4 -10z"/>
<path d="M8418 903 c31 -6 28 -21 -5 -26 -23 -3 -22 -4 9 -6 32 -1 35 2 31 19
-4 14 -13 20 -32 19 -23 -2 -24 -2 -3 -6z"/>
<path d="M8500 899 c0 -11 67 -12 73 -1 3 4 -13 7 -34 8 -21 1 -39 -3 -39 -7z"/>
<path d="M8720 900 c0 -5 5 -10 10 -10 6 0 10 5 10 10 0 6 -4 10 -10 10 -5 0
-10 -4 -10 -10z"/>
<path d="M422 884 c9 -9 21 -15 27 -13 6 2 -2 10 -17 17 -25 11 -25 11 -10 -4z"/>
<path d="M563 885 c0 -8 4 -15 9 -15 4 0 8 4 8 9 0 6 -4 12 -8 15 -5 3 -9 -1
-9 -9z"/>
<path d="M8598 893 c6 -2 18 -2 25 0 6 3 1 5 -13 5 -14 0 -19 -2 -12 -5z"/>
<path d="M8773 883 c0 -17 9 -16 33 2 18 14 18 14 -7 13 -14 -1 -26 -8 -26
-15z"/>
<path d="M138 883 c12 -2 30 -2 40 0 9 3 -1 5 -23 4 -22 0 -30 -2 -17 -4z"/>
<path d="M218 883 c7 -3 16 -2 19 1 4 3 -2 6 -13 5 -11 0 -14 -3 -6 -6z"/>
<path d="M1525 880 c3 -5 8 -10 11 -10 2 0 4 5 4 10 0 6 -5 10 -11 10 -5 0 -7
-4 -4 -10z"/>
<path d="M8868 883 c6 -2 18 -2 25 0 6 3 1 5 -13 5 -14 0 -19 -2 -12 -5z"/>
<path d="M623 873 c9 -2 23 -2 30 0 6 3 -1 5 -18 5 -16 0 -22 -2 -12 -5z"/>
<path d="M8698 873 c7 -3 16 -2 19 1 4 3 -2 6 -13 5 -11 0 -14 -3 -6 -6z"/>
<path d="M8200 860 c0 -5 5 -10 11 -10 5 0 7 5 4 10 -3 6 -8 10 -11 10 -2 0
-4 -4 -4 -10z"/>
<path d="M8240 860 c0 -5 5 -10 10 -10 6 0 10 5 10 10 0 6 -4 10 -10 10 -5 0
-10 -4 -10 -10z"/>
<path d="M8298 863 c7 -3 16 -2 19 1 4 3 -2 6 -13 5 -11 0 -14 -3 -6 -6z"/>
<path d="M8113 853 c9 -2 23 -2 30 0 6 3 -1 5 -18 5 -16 0 -22 -2 -12 -5z"/>
<path d="M8168 853 c7 -3 16 -2 19 1 4 3 -2 6 -13 5 -11 0 -14 -3 -6 -6z"/>
<path d="M4754 749 c-10 -17 17 -29 38 -16 17 11 17 12 0 19 -25 10 -30 9 -38
-3z"/>
<path d="M4840 746 c0 -2 7 -7 16 -10 8 -3 12 -2 9 4 -6 10 -25 14 -25 6z"/>
<path d="M5075 720 c-3 -5 3 -10 14 -10 12 0 21 5 21 10 0 6 -6 10 -14 10 -8
0 -18 -4 -21 -10z"/>
<path d="M5218 703 c12 -2 32 -2 45 0 12 2 2 4 -23 4 -25 0 -35 -2 -22 -4z"/>
<path d="M4010 689 c-27 -5 -20 -7 30 -8 36 0 70 3 77 7 14 9 -59 9 -107 1z"/>
<path d="M4858 693 c6 -2 18 -2 25 0 6 3 1 5 -13 5 -14 0 -19 -2 -12 -5z"/>
<path d="M3770 683 c-8 -2 -58 -7 -110 -11 -54 -4 -94 -11 -94 -17 2 -9 16 -9
89 0 17 2 84 7 150 11 66 4 125 9 132 13 12 6 -139 10 -167 4z"/>
<path d="M5150 680 c0 -5 5 -10 11 -10 5 0 7 5 4 10 -3 6 -8 10 -11 10 -2 0
-4 -4 -4 -10z"/>
<path d="M4513 663 c9 -2 23 -2 30 0 6 3 -1 5 -18 5 -16 0 -22 -2 -12 -5z"/>
<path d="M4608 663 c18 -2 45 -2 60 0 15 2 0 4 -33 4 -33 0 -45 -2 -27 -4z"/>
<path d="M4720 660 c0 -5 5 -10 11 -10 5 0 7 5 4 10 -3 6 -8 10 -11 10 -2 0
-4 -4 -4 -10z"/>
<path d="M4765 660 c29 -11 285 -21 285 -11 0 4 -24 8 -52 8 -29 1 -98 3 -153
6 -55 3 -91 1 -80 -3z"/>
<path d="M3510 650 c-13 -8 -12 -10 3 -10 9 0 17 5 17 10 0 12 -1 12 -20 0z"/>
<path d="M5072 651 c-10 -6 -7 -10 12 -13 21 -4 24 -3 15 8 -13 16 -11 16 -27
5z"/>
<path d="M3813 633 c9 -2 23 -2 30 0 6 3 -1 5 -18 5 -16 0 -22 -2 -12 -5z"/>
<path d="M5158 633 c12 -2 32 -2 45 0 12 2 2 4 -23 4 -25 0 -35 -2 -22 -4z"/>
<path d="M5260 630 c14 -4 41 -8 60 -8 32 0 33 1 10 8 -14 4 -41 8 -60 8 -32
0 -33 -1 -10 -8z"/>
<path d="M5482 625 c9 -9 88 -13 82 -4 -3 5 -24 9 -46 9 -23 0 -39 -2 -36 -5z"/>
<path d="M5605 610 c44 -11 75 -11 75 0 0 6 -23 9 -52 9 -45 -1 -49 -2 -23 -9z"/>
<path d="M5703 613 c4 -3 5 -8 2 -12 -2 -5 26 -11 63 -15 37 -4 83 -9 102 -12
27 -5 32 -4 24 6 -7 6 -47 15 -90 19 -44 4 -86 10 -94 13 -8 3 -12 3 -7 1z"/>
<path d="M5975 600 c3 -5 8 -10 11 -10 2 0 4 5 4 10 0 6 -5 10 -11 10 -5 0 -7
-4 -4 -10z"/>
<path d="M6035 600 l-30 -8 27 -1 c15 0 30 4 33 9 3 6 5 9 3 9 -2 -1 -16 -5
-33 -9z"/>
<path d="M6148 593 c7 -3 16 -2 19 1 4 3 -2 6 -13 5 -11 0 -14 -3 -6 -6z"/>
<path d="M6203 593 c9 -2 23 -2 30 0 6 3 -1 5 -18 5 -16 0 -22 -2 -12 -5z"/>
<path d="M3718 583 c7 -3 16 -2 19 1 4 3 -2 6 -13 5 -11 0 -14 -3 -6 -6z"/>
<path d="M3778 583 c7 -3 16 -2 19 1 4 3 -2 6 -13 5 -11 0 -14 -3 -6 -6z"/>
<path d="M3455 570 c3 -5 8 -10 11 -10 2 0 4 5 4 10 0 6 -5 10 -11 10 -5 0 -7
-4 -4 -10z"/>
<path d="M3668 573 c6 -2 18 -2 25 0 6 3 1 5 -13 5 -14 0 -19 -2 -12 -5z"/>
<path d="M5915 570 c3 -5 10 -10 16 -10 5 0 9 5 9 10 0 6 -7 10 -16 10 -8 0
-12 -4 -9 -10z"/>
<path d="M5950 570 c0 -5 5 -10 10 -10 6 0 10 5 10 10 0 6 -4 10 -10 10 -5 0
-10 -4 -10 -10z"/>
<path d="M5983 565 c0 -9 16 -13 51 -13 28 1 42 3 31 5 -11 3 -34 8 -51 12
-22 6 -31 5 -31 -4z"/>
<path d="M3840 560 c0 -5 5 -10 10 -10 6 0 10 5 10 10 0 6 -4 10 -10 10 -5 0
-10 -4 -10 -10z"/>
<path d="M3768 553 c7 -3 16 -2 19 1 4 3 -2 6 -13 5 -11 0 -14 -3 -6 -6z"/>
<path d="M6391 556 c12 -10 79 -16 79 -6 0 5 -19 10 -42 10 -23 0 -39 -2 -37
-4z"/>
<path d="M3210 540 c-12 -8 -11 -10 8 -10 12 0 22 5 22 10 0 13 -11 13 -30 0z"/>
<path d="M3370 539 c0 -5 5 -7 10 -4 6 3 10 8 10 11 0 2 -4 4 -10 4 -5 0 -10
-5 -10 -11z"/>
<path d="M3688 543 c7 -3 16 -2 19 1 4 3 -2 6 -13 5 -11 0 -14 -3 -6 -6z"/>
<path d="M6118 543 c6 -2 18 -2 25 0 6 3 1 5 -13 5 -14 0 -19 -2 -12 -5z"/>
<path d="M2658 532 c-10 -2 -18 -8 -18 -13 0 -11 -2 -11 39 1 24 7 39 6 48 -1
10 -9 13 -8 13 4 0 16 -35 20 -82 9z"/>
<path d="M3275 520 c-4 -6 9 -10 32 -10 28 0 34 3 23 10 -20 13 -47 13 -55 0z"/>
<path d="M2340 510 c0 -6 7 -10 15 -10 8 0 15 2 15 4 0 2 -7 6 -15 10 -8 3
-15 1 -15 -4z"/>
<path d="M2530 509 c-93 -18 -97 -19 -76 -31 13 -7 20 -7 26 2 4 6 13 10 21 9
13 -2 31 3 74 21 25 11 13 10 -45 -1z"/>
<path d="M2987 512 c-25 -5 -17 -36 10 -40 12 -2 30 2 40 8 15 10 14 10 -9 5
-27 -5 -40 9 -16 17 18 6 -4 15 -25 10z"/>
<path d="M3053 509 c10 -6 14 -15 10 -22 -5 -8 -2 -8 9 1 9 7 24 9 34 5 18 -6
18 -6 2 10 -9 9 -29 17 -45 17 -24 -1 -25 -2 -10 -11z"/>
<path d="M3185 510 l-40 -7 43 -2 c23 0 42 4 42 9 0 6 -1 9 -2 9 -2 -1 -21 -5
-43 -9z"/>
<path d="M5328 513 c7 -3 16 -2 19 1 4 3 -2 6 -13 5 -11 0 -14 -3 -6 -6z"/>
<path d="M2904 493 c15 -4 16 -7 5 -15 -10 -7 -7 -8 10 -4 14 3 32 0 40 -7 12
-10 12 -9 0 11 -10 15 -23 22 -44 21 -20 -1 -23 -3 -11 -6z"/>
<path d="M2230 479 c0 -5 5 -7 10 -4 6 3 10 8 10 11 0 2 -4 4 -10 4 -5 0 -10
-5 -10 -11z"/>
<path d="M2850 479 c11 -7 5 -8 -22 -3 -26 4 -38 3 -38 -5 0 -16 82 -10 88 7
2 7 -5 12 -20 12 -19 0 -20 -2 -8 -11z"/>
<path d="M2140 470 l-25 -8 27 -1 c15 -1 30 4 33 9 7 11 0 11 -35 0z"/>
<path d="M2305 470 c-11 -5 -15 -9 -8 -9 6 -1 20 -4 30 -7 15 -5 16 -4 3 6
-12 9 -8 11 20 6 25 -4 31 -3 20 4 -18 12 -38 12 -65 0z"/>
<path d="M6835 460 c3 -5 8 -10 11 -10 2 0 4 5 4 10 0 6 -5 10 -11 10 -5 0 -7
-4 -4 -10z"/>
<path d="M2265 450 c3 -5 11 -10 16 -10 6 0 7 5 4 10 -3 6 -11 10 -16 10 -6 0
-7 -4 -4 -10z"/>
<path d="M6860 456 c0 -2 11 -6 25 -8 14 -3 25 -1 25 3 0 5 -11 9 -25 9 -14 0
-25 -2 -25 -4z"/>
<path d="M2180 435 c0 -8 -7 -15 -16 -15 -9 0 -12 5 -8 12 5 8 2 9 -10 5 -10
-4 -31 -7 -47 -7 -22 0 -29 -5 -29 -20 0 -14 7 -20 23 -20 18 0 19 2 7 11 -13
9 -13 10 1 6 9 -3 38 -1 64 5 35 7 44 13 34 20 -9 6 -3 7 21 3 26 -5 31 -4 20
4 -23 16 -60 13 -60 -4z"/>
<path d="M2506 434 c-26 -9 -46 -17 -44 -19 7 -7 128 19 128 27 0 12 -28 9
-84 -8z"/>
<path d="M7768 443 c7 -3 16 -2 19 1 4 3 -2 6 -13 5 -11 0 -14 -3 -6 -6z"/>
<path d="M6990 430 c-12 -8 -10 -10 8 -10 13 0 20 4 17 10 -7 12 -6 12 -25 0z"/>
<path d="M1974 408 c-4 -15 -12 -19 -30 -15 -13 2 -21 0 -18 -4 3 -5 -1 -9 -8
-10 -7 0 -4 -4 7 -9 28 -12 37 -12 30 0 -4 7 3 8 21 4 20 -5 25 -4 20 5 -6 9
2 11 31 6 28 -5 34 -4 23 4 -13 9 -13 11 0 11 28 0 -9 25 -40 26 -21 1 -31 -4
-36 -18z"/>
<path d="M6805 420 c-3 -5 -1 -10 4 -10 6 0 11 5 11 10 0 6 -2 10 -4 10 -3 0
-8 -4 -11 -10z"/>
<path d="M2400 410 c0 -5 9 -10 20 -10 11 0 20 5 20 10 0 6 -9 10 -20 10 -11
0 -20 -4 -20 -10z"/>
<path d="M7068 413 c7 -3 16 -2 19 1 4 3 -2 6 -13 5 -11 0 -14 -3 -6 -6z"/>
<path d="M2340 400 c-9 -6 -10 -10 -3 -10 6 0 15 5 18 10 8 12 4 12 -15 0z"/>
<path d="M7010 396 c0 -2 9 -6 20 -9 11 -3 20 -1 20 4 0 5 -9 9 -20 9 -11 0
-20 -2 -20 -4z"/>
<path d="M2227 383 c-4 -3 -7 -11 -7 -17 0 -6 5 -5 12 2 6 6 9 14 7 17 -3 3
-9 2 -12 -2z"/>
<path d="M6868 383 c7 -3 16 -2 19 1 4 3 -2 6 -13 5 -11 0 -14 -3 -6 -6z"/>
<path d="M7108 373 c6 -2 18 -2 25 0 6 3 1 5 -13 5 -14 0 -19 -2 -12 -5z"/>
<path d="M7168 363 c6 -2 18 -2 25 0 6 3 1 5 -13 5 -14 0 -19 -2 -12 -5z"/>
<path d="M2000 353 c0 -5 11 -8 25 -8 14 0 25 3 25 8 0 4 -11 7 -25 7 -14 0
-25 -3 -25 -7z"/>
<path d="M2068 333 c7 -3 16 -2 19 1 4 3 -2 6 -13 5 -11 0 -14 -3 -6 -6z"/>
<path d="M2013 283 c9 -2 23 -2 30 0 6 3 -1 5 -18 5 -16 0 -22 -2 -12 -5z"/>
<path d="M8950 280 c0 -5 5 -10 10 -10 6 0 10 5 10 10 0 6 -4 10 -10 10 -5 0
-10 -4 -10 -10z"/>
<path d="M7768 263 c7 -3 16 -2 19 1 4 3 -2 6 -13 5 -11 0 -14 -3 -6 -6z"/>
<path d="M1865 250 c-8 -13 5 -13 25 0 13 8 13 10 -2 10 -9 0 -20 -4 -23 -10z"/>
</g>
</svg>
